<svg width="20" height="20" viewBox="0 0 20 20" fill="none" xmlns="http://www.w3.org/2000/svg">
<path fill-rule="evenodd" clip-rule="evenodd" d="M11.25 10.4998C9.73122 10.4998 8.5 9.26854 8.5 7.74976C8.5 6.23097 9.73122 4.99976 11.25 4.99976C12.7688 4.99976 14 6.23097 14 7.74976C14 9.26854 12.7688 10.4998 11.25 10.4998ZM10 7.74976C10 7.0594 10.5596 6.49976 11.25 6.49976C11.9404 6.49976 12.5 7.0594 12.5 7.74976C12.5 8.44011 11.9404 8.99976 11.25 8.99976C10.5596 8.99976 10 8.44011 10 7.74976Z" fill="#F4600C"/>
<path d="M7 14.2498C7 12.731 8.23122 11.4998 9.75 11.4998H12.75C14.2688 11.4998 15.5 12.731 15.5 14.2498C15.5 14.664 15.1642 14.9998 14.75 14.9998C14.3358 14.9998 14 14.664 14 14.2498C14 13.5594 13.4404 12.9998 12.75 12.9998H9.75C9.05964 12.9998 8.5 13.5594 8.5 14.2498C8.5 14.664 8.16421 14.9998 7.75 14.9998C7.33579 14.9998 7 14.664 7 14.2498Z" fill="#F4600C"/>
<path fill-rule="evenodd" clip-rule="evenodd" d="M2.24658 6.74829V9.24976H1.49609C1.08188 9.24976 0.746094 9.58554 0.746094 9.99976C0.746094 10.414 1.08188 10.7498 1.49609 10.7498H2.24658V13.2512H1.49609C1.08188 13.2512 0.746094 13.587 0.746094 14.0012C0.746094 14.4154 1.08188 14.7512 1.49609 14.7512H2.24658V17.0025C2.24658 18.5222 3.47774 19.7533 4.99742 19.7533H17.0024C18.5221 19.7533 19.7532 18.5222 19.7532 17.0025V2.99668C19.7532 1.47701 18.5221 0.24585 17.0024 0.24585H4.99742C3.47774 0.24585 2.24658 1.47701 2.24658 2.99668V5.24829H1.49609C1.08188 5.24829 0.746094 5.58408 0.746094 5.99829C0.746094 6.4125 1.08188 6.74829 1.49609 6.74829H2.24658ZM4.99742 1.74585C4.30617 1.74585 3.74658 2.30544 3.74658 2.99668V5.24829H4.49734C4.91156 5.24829 5.24734 5.58408 5.24734 5.99829C5.24734 6.4125 4.91156 6.74829 4.49734 6.74829H3.74658V9.24976H4.29826C4.71247 9.24976 5.04826 9.58554 5.04826 9.99976C5.04826 10.414 4.71247 10.7498 4.29826 10.7498H3.74658V13.2512H4.29826C4.71247 13.2512 5.04826 13.587 5.04826 14.0012C5.04826 14.4154 4.71247 14.7512 4.29826 14.7512H3.74658V17.0025C3.74658 17.6938 4.30617 18.2533 4.99742 18.2533H17.0024C17.6937 18.2533 18.2532 17.6938 18.2532 17.0025V2.99668C18.2532 2.30544 17.6937 1.74585 17.0024 1.74585H4.99742Z" fill="#091E42"/>
</svg>
