<svg width="56" height="56" viewBox="0 0 56 56" fill="none" xmlns="http://www.w3.org/2000/svg">
<path d="M4 28C4 14.7452 14.7452 4 28 4C41.2548 4 52 14.7452 52 28C52 41.2548 41.2548 52 28 52C14.7452 52 4 41.2548 4 28Z" fill="#FDE9CE"/>
<path d="M28 48C16.9543 48 8 39.0457 8 28H0C0 43.464 12.536 56 28 56V48ZM48 28C48 39.0457 39.0457 48 28 48V56C43.464 56 56 43.464 56 28H48ZM28 8C39.0457 8 48 16.9543 48 28H56C56 12.536 43.464 0 28 0V8ZM28 0C12.536 0 0 12.536 0 28H8C8 16.9543 16.9543 8 28 8V0Z" fill="#FEF4E6"/>
<path d="M28.0298 22.75C28.444 22.75 28.7798 23.0858 28.7798 23.5V28.5C28.7798 28.9142 28.444 29.25 28.0298 29.25C27.6156 29.25 27.2798 28.9142 27.2798 28.5V23.5C27.2798 23.0858 27.6156 22.75 28.0298 22.75Z" fill="#F79009"/>
<path d="M27.0298 32.2527C27.0272 31.6965 27.4785 31.25 28.0288 31.25C28.5801 31.25 29.0298 31.6958 29.0298 32.25C29.0298 32.8022 28.582 33.25 28.0298 33.25C27.4785 33.25 27.0313 32.8037 27.0298 32.2527Z" fill="#F79009"/>
<path fill-rule="evenodd" clip-rule="evenodd" d="M18.2798 28C18.2798 33.3852 22.6446 37.75 28.0298 37.75C33.415 37.75 37.7798 33.3852 37.7798 28C37.7798 22.6148 33.415 18.25 28.0298 18.25C22.6446 18.25 18.2798 22.6148 18.2798 28ZM19.7798 28C19.7798 23.4432 23.473 19.75 28.0298 19.75C32.5866 19.75 36.2798 23.4432 36.2798 28C36.2798 32.5568 32.5866 36.25 28.0298 36.25C23.473 36.25 19.7798 32.5568 19.7798 28Z" fill="#F79009"/>
</svg>
