<svg width="56" height="56" viewBox="0 0 56 56" fill="none" xmlns="http://www.w3.org/2000/svg">
<path d="M4 28C4 14.7452 14.7452 4 28 4C41.2548 4 52 14.7452 52 28C52 41.2548 41.2548 52 28 52C14.7452 52 4 41.2548 4 28Z" fill="#FCDAD7"/>
<path d="M28 48C16.9543 48 8 39.0457 8 28H0C0 43.464 12.536 56 28 56V48ZM48 28C48 39.0457 39.0457 48 28 48V56C43.464 56 56 43.464 56 28H48ZM28 8C39.0457 8 48 16.9543 48 28H56C56 12.536 43.464 0 28 0V8ZM28 0C12.536 0 0 12.536 0 28H8C8 16.9543 16.9543 8 28 8V0Z" fill="#FEECEB"/>
<path d="M31.39 24.6397C31.6829 24.9326 31.6829 25.4075 31.39 25.7004L29.0904 28L31.39 30.2997C31.6829 30.5926 31.6829 31.0675 31.39 31.3604C31.0971 31.6533 30.6223 31.6533 30.3294 31.3604L28.0297 29.0607L25.73 31.3604C25.4371 31.6533 24.9623 31.6533 24.6694 31.3604C24.3765 31.0675 24.3765 30.5926 24.6694 30.2997L26.969 28L24.6694 25.7004C24.3765 25.4075 24.3765 24.9326 24.6694 24.6397C24.9623 24.3468 25.4371 24.3468 25.73 24.6397L28.0297 26.9394L30.3294 24.6397C30.6223 24.3468 31.0971 24.3468 31.39 24.6397Z" fill="#F04438"/>
<path fill-rule="evenodd" clip-rule="evenodd" d="M28.0298 18.25C22.6446 18.25 18.2798 22.6148 18.2798 28C18.2798 33.3852 22.6446 37.75 28.0298 37.75C33.415 37.75 37.7798 33.3852 37.7798 28C37.7798 22.6148 33.415 18.25 28.0298 18.25ZM19.7798 28C19.7798 23.4432 23.473 19.75 28.0298 19.75C32.5866 19.75 36.2798 23.4432 36.2798 28C36.2798 32.5568 32.5866 36.25 28.0298 36.25C23.473 36.25 19.7798 32.5568 19.7798 28Z" fill="#F04438"/>
</svg>
