<?xml version="1.0" standalone="no"?>
<!DOCTYPE svg PUBLIC "-//W3C//DTD SVG 1.1//EN" "http://www.w3.org/Graphics/SVG/1.1/DTD/svg11.dtd" >
<svg xmlns="http://www.w3.org/2000/svg">
<metadata>Generated by IcoMoon</metadata>
<defs>
<font id="MSB-Outline" horiz-adv-x="1024">
<font-face units-per-em="1024" ascent="960" descent="-64" />
<missing-glyph horiz-adv-x="1024" />
<glyph unicode="&#x20;" horiz-adv-x="512" d="" />
<glyph unicode="&#xe900;" glyph-name="saving" horiz-adv-x="1067" d="M502.605 501.333h-128c-17.667 0-32 14.332-32 32 0 14.497 9.651 26.749 22.876 30.679-11.096 12.807-20.099 26.81-27.008 41.559-75.197-37.48-123.868-114.487-123.868-200.239 0-63.334 27.229-124.041 74.687-166.583 6.771-6.084 10.646-14.75 10.646-23.834v-102.626c0-5.875 4.791-10.667 10.667-10.667h85.333c5.875 0 10.667 4.791 10.667 10.667v37.043c0 17.668 14.333 32 32 32h149.333c17.664 0 32-14.332 32-32v-42.667c0-5.875 4.791-10.667 10.667-10.667h85.333c5.875 0 10.667 4.791 10.667 10.667v77.167c0 11.375 6.042 21.918 15.915 27.665 33.958 19.75 62.251 48.085 81.792 81.877 5.709 9.873 16.294 15.957 27.708 15.957h55.919c5.875 0 10.667 4.791 10.667 10.667v130.769c0 5.875-4.791 10.667-10.667 10.667h-37.291c-13.461 0-25.459 8.397-30.042 21.022-12.126 33.148-33.126 63.855-60.791 88.813-6.711 6.063-10.543 14.688-10.543 23.75v76.979h-10.667c-18.082 0-35.669-5.167-50.833-14.959-8.602-5.524-18.074-10.267-28.318-14.196-6.353-28.42-19.593-55.597-39.727-78.833 13.227-3.93 22.878-16.182 22.878-30.679 0-17.668-14.336-32-32-32h-128zM585.562 599.688c19.61 19.608 30.814 44.489 33.613 70.124 0.043 0.53 0.094 1.058 0.162 1.583 3.221 33.687-8.034 68.513-33.775 94.251-22.165 22.167-51.605 34.354-82.957 34.354-31.334 0-60.791-12.208-82.959-34.354-29.379-29.378-39.892-70.595-31.539-108.445 0.374-1.24 0.669-2.487 0.888-3.733 5.032-19.72 15.249-38.377 30.651-53.779 44.354-44.313 121.623-44.313 165.916 0zM630.814 810.896c26.97-26.973 43.657-60.397 50.048-95.351 23.637 13.393 50.351 20.455 77.743 20.455h42.667c17.664 0 32-14.333 32-32v-95.229c24.623-24.479 44.582-52.813 58.748-83.335h15.919c41.165 0 74.667-33.498 74.667-74.667v-130.769c0-41.165-33.502-74.667-74.667-74.667h-38.165c-20.919-31.206-47.876-58.167-79.168-79.206v-59.46c0-41.165-33.502-74.667-74.667-74.667h-85.333c-41.169 0-74.667 33.502-74.667 74.667v10.667h-85.333v-5.043c0-41.165-33.502-74.667-74.667-74.667h-85.333c-41.167 0-74.667 33.502-74.667 74.667v88.836c-47.43 47.044-76.995 109.052-83.794 174.959h-8.914c-54.75 0-99.291 44.561-99.291 99.311 0 35.021 18.979 67.833 49.542 85.604 15.271 8.833 34.833 3.729 43.75-11.584 8.875-15.271 3.708-34.852-11.584-43.748-11.083-6.438-17.708-17.771-17.708-30.272 0-19.46 15.833-35.294 35.291-35.294h10.133c12.191 100.332 75.773 187.279 168.553 228.385-3.968 51.041 13.526 103.453 52.481 142.408 34.25 34.25 79.77 53.104 128.209 53.104 48.457 0 93.956-18.854 128.209-53.104zM771.23 448c0-8.623-4.083-18.291-10.253-24.333-6.208-6.042-14.955-9.062-23.706-9.062-8.875 0-17.749 3.123-24 9.374-5.999 5.999-9.958 15.543-9.958 24.021 0 8.623 4.083 18.291 10.249 24.333 12.378 12.105 34.876 12.19 47.415 0 0.043-0.064 0.128-0.124 0.171-0.188l0.124-0.124c5.999-6.042 9.958-15.522 9.958-24.021z" />
<glyph unicode="&#xe901;" glyph-name="tv" horiz-adv-x="1067" d="M703.488 441.6c14.14 10.603 17.007 30.656 6.404 44.796s-30.66 17.007-44.8 6.404l-115.797-86.827-40.469 60.254c-4.894 7.283-12.561 12.241-21.214 13.705-8.653 1.468-17.523-0.683-24.546-5.943l-139.989-104.96c-14.14-10.603-17.008-30.66-6.406-44.8s30.659-17.007 44.799-6.409l113.023 84.74 40.469-60.254c4.894-7.283 12.565-12.241 21.214-13.705 8.653-1.468 17.527 0.683 24.55 5.948l142.763 107.051zM410.191 901.293c14.705 9.803 34.571 5.83 44.376-8.875l58.709-88.062 58.705 88.062c9.805 14.705 29.67 18.678 44.378 8.875 14.703-9.803 18.679-29.671 8.875-44.376l-52.169-78.25h108.826c124.847 0 226.048-101.192 226.048-226.005v-294.613c0-124.847-101.193-226.048-226.005-226.048h-337.323c-124.809 0-226.005 101.197-226.005 226.005v294.656c0 124.809 101.196 226.005 226.005 226.005h108.873l-52.167 78.25c-9.804 14.705-5.83 34.573 8.875 44.376zM344.61 714.667c-89.463 0-162.005-72.542-162.005-162.005v-294.656c0-89.463 72.542-162.005 162.005-162.005h337.323c89.459 0 162.005 72.538 162.005 162.048v294.613c0 89.458-72.538 162.005-162.048 162.005h-337.28z" />
<glyph unicode="&#xe902;" glyph-name="up" horiz-adv-x="1067" d="M490.645 603.961c12.493 12.497 32.755 12.497 45.252 0l266.667-266.668c12.497-12.497 12.497-32.755 0-45.252s-32.759-12.497-45.252 0l-244.041 244.038-244.040-244.038c-12.497-12.497-32.758-12.497-45.255 0s-12.497 32.755 0 45.252l266.668 266.668z" />
<glyph unicode="&#xe903;" glyph-name="up-circle" horiz-adv-x="1067" d="M480.452 543.807v-270.851c0-18.125 14.694-32.819 32.819-32.819s32.819 14.694 32.819 32.819v270.851l75.255-75.255c12.817-12.817 33.596-12.817 46.413 0s12.817 33.6 0 46.417l-131.281 131.281c-3.145 3.147-6.771 5.521-10.645 7.123-3.87 1.605-8.111 2.49-12.561 2.49s-8.695-0.886-12.565-2.49c-3.87-1.602-7.497-3.976-10.641-7.123l-131.284-131.281c-12.817-12.817-12.817-33.6 0-46.417s33.598-12.817 46.415 0l75.256 75.255zM513.271 21.333c-235.661 0-426.667 191.006-426.667 426.667s191.006 426.667 426.667 426.667c235.661 0 426.667-191.006 426.667-426.667s-191.006-426.667-426.667-426.667zM513.271 809.026c-199.409 0-361.026-161.617-361.026-361.026 0-199.407 161.617-361.024 361.026-361.024 199.407 0 361.024 161.617 361.024 361.024s-161.617 361.026-361.024 361.026z" />
<glyph unicode="&#xe904;" glyph-name="up-diagonal-left" horiz-adv-x="1067" d="M462.524 544h114.748c17.673 0 32 14.327 32 32s-14.327 32-32 32h-192c-4.339 0-8.476-0.864-12.249-2.428-3.774-1.562-7.311-3.876-10.379-6.944s-5.383-6.604-6.944-10.378c-1.565-3.773-2.428-7.91-2.428-12.249v-192c0-17.673 14.327-32 32-32s32 14.327 32 32v114.743l201.374-201.37c12.493-12.497 32.755-12.497 45.252 0s12.497 32.755 0 45.252l-201.374 201.374zM219.103 742.158c162.47 162.47 425.847 162.47 588.317 0s162.47-425.844 0-588.314c-162.47-162.47-425.847-162.47-588.317 0s-162.47 425.844 0 588.314zM762.163 696.903c-137.476 137.477-360.329 137.477-497.806 0s-137.477-360.331 0-497.807c137.476-137.476 360.329-137.476 497.806 0s137.476 360.331 0 497.807z" />
<glyph unicode="&#xe905;" glyph-name="up-diagonal-right" horiz-adv-x="1067" d="M564.015 544l-201.372-201.374c-12.497-12.497-12.497-32.755 0-45.252s32.758-12.497 45.255 0l201.373 201.37v-114.743c0-17.673 14.327-32 32-32s32 14.327 32 32v192c0 8.189-3.123 16.379-9.374 22.627-3.068 3.068-6.605 5.383-10.377 6.944-3.776 1.565-7.91 2.428-12.25 2.428h-192c-17.673 0-32-14.327-32-32s14.328-32 32-32h114.743zM219.103 742.158c162.47 162.47 425.847 162.47 588.317 0s162.47-425.844 0-588.314c-162.47-162.47-425.847-162.47-588.317 0s-162.47 425.844 0 588.314zM762.163 696.903c-137.476 137.477-360.329 137.477-497.806 0s-137.477-360.331 0-497.807c137.476-137.476 360.329-137.476 497.806 0s137.476 360.331 0 497.807z" />
<glyph unicode="&#xe906;" glyph-name="video" horiz-adv-x="1067" d="M883.814 659.896c-28.083 13.437-60.501 9.604-84.668-9.854l-109.875-88.414v35.706c0 70.583-57.417 128-128 128h-336c-70.583 0-128-57.417-128-128v-298.667c0-70.583 57.417-128 128-128h336c70.583 0 128 57.417 128 128v35.674l109.833-88.384c14.626-11.746 32.209-17.788 50.044-17.788 11.708 0 23.539 2.624 34.667 7.915 28.041 13.457 45.457 41.084 45.457 72.166v279.479c0 31.104-17.417 58.75-45.457 72.167zM625.271 298.667c0-35.29-28.71-64-64-64h-336c-35.292 0-64 28.71-64 64v298.667c0 35.292 28.708 64 64 64h336c35.29 0 64-28.708 64-64v-298.667zM865.271 308.25c0-9.084-6.374-13.124-9.084-14.417-2.752-1.293-9.916-3.708-16.917 1.958l-149.999 120.742v62.963l149.999 120.691c7.083 5.75 14.165 3.25 16.917 1.979 2.709-1.312 9.084-5.333 9.084-14.438v-279.479z" />
<glyph unicode="&#xe907;" glyph-name="wallet" horiz-adv-x="1067" d="M812.062 714.781h-53.376v10.687c0 64.709-52.625 117.354-117.333 117.354h-405.519c-76.479 0-138.708-62.229-138.708-138.708v-512.187c0-76.501 62.229-138.752 138.708-138.752h554.895c76.501 0 138.709 62.251 138.709 138.752v405.479c0 64.729-52.668 117.375-117.376 117.375zM235.833 778.823h405.519c29.419 0 53.333-23.937 53.333-53.354v-10.687h-532.811c5.208 36.166 36.375 64.041 73.958 64.041zM865.438 191.927c0-41.207-33.502-74.752-74.709-74.752h-554.895c-41.187 0-74.708 33.545-74.708 74.752v458.854h650.937c29.419 0 53.376-23.938 53.376-53.375v-405.479zM726.665 394.637h-85.333c-17.664 0-32-14.336-32-32 0-17.668 14.336-32 32-32h85.333c17.668 0 32 14.332 32 32 0 17.664-14.332 32-32 32z" />
<glyph unicode="&#xe908;" glyph-name="book" horiz-adv-x="1067" d="M751.415 821.333h60.523c41.225 0 74.667-33.442 74.667-74.667v-469.333c0-29.773-17.446-55.488-42.667-67.477v-113.856h10.667c17.673 0 32-14.327 32-32s-14.327-32-32-32h-597.334c-64.82 0-117.333 52.514-117.333 117.333v554.667c0 64.82 52.513 117.333 117.333 117.333h273.856c11.989 25.222 37.7 42.667 67.477 42.667h85.333c29.773 0 55.488-17.444 67.477-42.667zM523.938 757.333h-149.334v-490.667h437.334c5.879 0 10.667 4.787 10.667 10.667v469.333c0 5.879-4.787 10.667-10.667 10.667h-53.333v-181.333c0-11.090-5.743-21.39-15.177-27.221s-21.214-6.361-31.134-1.401l-71.023 35.511-71.023-35.511c-9.92-4.96-21.7-4.43-31.134 1.401s-15.177 16.131-15.177 27.221v181.333zM694.605 789.333c0 5.879-4.787 10.667-10.667 10.667h-85.333c-5.879 0-10.667-4.788-10.667-10.667v-161.556l39.023 19.511c9.007 4.504 19.61 4.504 28.621 0l39.023-19.511v161.556zM257.271 757.333c-29.474 0-53.333-23.86-53.333-53.333v-450.121c16 8.175 34.126 12.787 53.333 12.787h53.333v490.667h-53.333zM257.271 96h522.667v106.667h-522.667c-29.474 0-53.333-23.859-53.333-53.333s23.86-53.333 53.333-53.333z" />
<glyph unicode="&#xe909;" glyph-name="edit" horiz-adv-x="1067" d="M161.271 746.667c0 29.474 23.86 53.333 53.333 53.333h298.667c17.673 0 32 14.327 32 32s-14.327 32-32 32h-298.667c-64.82 0-117.333-52.514-117.333-117.333v-597.333c0-64.819 52.513-117.333 117.333-117.333h597.334c64.819 0 117.333 52.514 117.333 117.333v341.333c0 17.673-14.327 32-32 32s-32-14.327-32-32v-341.333c0-29.474-23.859-53.333-53.333-53.333h-597.334c-29.474 0-53.333 23.859-53.333 53.333v597.333zM892.847 827.577c48.525-48.582 48.559-127.3 0-175.857l-325.662-325.661c-11.716-11.644-27.042-19.196-43.622-21.222l-134.37-16.593c-9.888-1.225-19.782 2.231-26.761 9.344-6.979 7.108-10.247 17.067-8.841 26.931l19.719 138.287c2.304 15.983 9.685 30.775 21.12 42.21l322.575 322.575c48.58 48.525 127.287 48.544 175.842-0.013zM847.595 696.975c23.548 23.548 23.565 61.751-0.017 85.361-23.543 23.532-61.739 23.537-85.346-0.027l-322.547-322.545c-1.617-1.617-2.684-3.733-3.029-6.089l-13.801-96.789 92.934 11.477c2.27 0.277 4.527 1.357 6.285 3.093l325.521 325.519z" />
<glyph unicode="&#xe90a;" glyph-name="exchange-rate" horiz-adv-x="1067" d="M266.373 876.128c12.497 12.497 32.758 12.497 45.255 0l63.938-63.939c0.288-0.285 0.57-0.576 0.847-0.873 5.477-5.856 8.342-13.267 8.596-20.751 0.146-4.306-0.573-8.636-2.156-12.707-1.56-4.012-3.959-7.773-7.199-11.012l-64.026-64.026c-12.497-12.497-32.758-12.497-45.255 0s-12.497 32.758 0 45.255l9.4 9.4h-8.115c-53.049 0-96.053-43.005-96.053-96.053 0-17.673-14.327-32-32-32s-32 14.327-32 32c0 88.395 71.658 160.053 160.053 160.053h8.114l-9.399 9.399c-12.497 12.497-12.497 32.758 0 45.255zM939.921 234.577c0 17.673-14.327 32-32 32s-32-14.327-32-32c0-53.047-43.004-96.051-96.051-96.051h-8.115l9.399 9.399c12.497 12.497 12.497 32.759 0 45.252-12.497 12.497-32.759 12.497-45.257 0l-64.026-64.026c-3.14-3.14-5.491-6.771-7.053-10.65-1.301-3.217-2.095-6.694-2.278-10.33-0.026-0.546-0.043-1.097-0.043-1.647 0-4.459 0.913-8.704 2.56-12.557 1.361-3.196 3.268-6.217 5.717-8.917 0.397-0.439 0.802-0.866 1.225-1.28l63.898-63.902c12.497-12.497 32.759-12.497 45.257 0s12.497 32.759 0 45.257l-9.399 9.399h8.115c88.393 0 160.051 71.659 160.051 160.051zM374.381 415.974c-53.034 0-96.026-42.991-96.026-96.026s42.993-96.030 96.026-96.030c53.033 0 96.028 42.995 96.028 96.030s-42.995 96.026-96.028 96.026zM342.354 319.949c0 17.685 14.339 32.026 32.026 32.026s32.027-14.34 32.027-32.026c0-17.69-14.339-32.030-32.027-32.030s-32.026 14.34-32.026 32.030zM107.604 428.966c0 51.759 41.958 93.717 93.716 93.717h322.444c31.13 0 60.983-12.369 82.995-34.377 22.007-22.012 34.377-51.866 34.377-82.995v-194.389c0-51.759-41.958-93.717-93.717-93.717h-346.098c-51.758 0-93.716 41.958-93.716 93.717v218.044zM201.32 458.684c-16.412 0-29.716-13.303-29.716-29.717v-218.044c0-16.414 13.304-29.717 29.716-29.717h346.098c16.41 0 29.717 13.303 29.717 29.717v194.389c0 14.157-5.623 27.729-15.633 37.739s-23.582 15.633-37.739 15.633h-322.444zM500.113 714.792c-16.414 0-29.717-13.304-29.717-29.715v-66.338c0-17.673-14.327-32-32-32s-32 14.327-32 32v66.338c0 51.757 41.958 93.715 93.717 93.715h322.445c64.819 0 117.367-52.548 117.367-117.369v-194.394c0-24.853-9.873-48.691-27.447-66.266-17.579-17.574-41.412-27.447-66.27-27.447h-109.022c-17.673 0-32 14.327-32 32s14.327 32 32 32h109.022c7.881 0 15.441 3.132 21.013 8.704s8.704 13.129 8.704 21.009v194.394c0 29.475-23.893 53.369-53.367 53.369h-322.445zM650.534 598.714c8.090 8.098 19.887 11.264 30.946 8.303 11.055-2.96 19.691-11.597 22.652-22.653s-0.205-22.854-8.303-30.943c-12.506-12.489-12.514-32.751-0.026-45.253 12.489-12.506 32.751-12.518 45.252-0.030 24.282 24.256 33.775 59.625 24.9 92.778-8.879 33.152-34.773 59.047-67.925 67.923s-68.523-0.615-92.774-24.897c-12.489-12.504-12.48-32.765 0.026-45.255 12.501-12.489 32.764-12.478 45.252 0.026z" />
<glyph unicode="&#xe90b;" glyph-name="gift" horiz-adv-x="1067" d="M833.271 693.333h-130.752c8.286 16.076 13.419 34.031 13.419 53.333 0 64.708-52.625 117.333-117.333 117.333-33.711 0-63.915-14.479-85.333-37.31-21.419 22.831-51.627 37.31-85.333 37.31-64.709 0-117.334-52.625-117.334-117.333 0-19.302 5.13-37.258 13.419-53.333h-130.752c-52.938 0-96-43.063-96-96v-42.667c0-33.207 16.966-62.507 42.667-79.748v-325.585c0-64.708 52.625-117.333 117.333-117.333h512c64.708 0 117.333 52.625 117.333 117.333v325.589c25.698 17.246 42.667 46.537 42.667 79.744v42.667c0 52.937-43.085 96-96 96zM865.271 597.333v-42.667c0-17.646-14.374-32-32-32h-202.667v96c0 3.651-0.567 7.153-1.079 10.667h203.746c17.626 0 32-14.354 32-32zM598.605 800c29.414 0 53.333-23.917 53.333-53.333s-23.919-53.333-53.333-53.333h-53.333v53.333c0 29.417 23.915 53.333 53.333 53.333zM374.604 746.667c0 29.417 23.916 53.333 53.334 53.333 29.414 0 53.333-23.917 53.333-53.333v-53.333h-53.333c-29.417 0-53.334 23.917-53.334 53.333zM161.271 597.333c0 17.646 14.354 32 32 32h203.744c-0.51-3.513-1.078-7.016-1.078-10.667v-96h-202.667c-17.646 0-32 14.354-32 32v42.667zM203.938 149.333v309.333h192v-352c0-3.652 0.567-7.155 1.078-10.667h-139.744c-29.417 0-53.333 23.915-53.333 53.333zM470.605 96c-5.875 0-10.667 4.791-10.667 10.667v512c0 5.875 4.791 10.667 10.667 10.667h85.333c5.875 0 10.667-4.791 10.667-10.667v-512c0-5.875-4.791-10.667-10.667-10.667h-85.333zM769.271 96h-139.746c0.512 3.511 1.079 7.014 1.079 10.667v352h192v-309.333c0-29.419-23.919-53.333-53.333-53.333z" />
<glyph unicode="&#xe90c;" glyph-name="support-manage" horiz-adv-x="1067" d="M161.104 618.737c0 100.197 81.225 181.422 181.422 181.422h341.476c100.198 0 181.423-81.225 181.423-181.422v-85.369c0-17.673 14.327-32 32-32s32 14.327 32 32v85.369c0 135.543-109.879 245.422-245.423 245.422h-341.476c-135.543 0-245.422-109.879-245.422-245.422v-341.476c0-135.543 109.879-245.423 245.422-245.423h85.369c17.673 0 32 14.327 32 32s-14.327 32-32 32h-85.369c-100.197 0-181.422 81.225-181.422 181.423v341.476zM555.959 608.052c-17.673 0-32-14.327-32-32s14.327-32 32-32h170.735c17.677 0 32 14.327 32 32s-14.323 32-32 32h-170.735zM441.826 644.932c11.827-13.133 10.769-33.366-2.364-45.193l-78.967-71.112c-12.174-10.965-30.662-10.961-42.833 0.004l-39.227 35.343c-13.13 11.83-14.184 32.064-2.354 45.194s32.064 14.184 45.193 2.354l17.812-16.049 57.547 51.823c13.133 11.827 33.365 10.768 45.193-2.365zM439.462 386.317c13.133 11.827 14.191 32.060 2.364 45.193s-32.060 14.191-45.193 2.364l-57.547-51.823-17.812 16.051c-13.13 11.827-33.364 10.773-45.193-2.355s-10.776-33.365 2.354-45.193l39.227-35.345c12.171-10.965 30.659-10.965 42.833-0.004l78.967 71.113zM687.936 181.21h120.209c66.91-0.192 121.101-54.383 121.293-121.293v-17.421c0-29.457-23.885-53.342-53.342-53.342h-256.107c-14.148 0-27.716 5.619-37.722 15.625-10.001 10.005-15.62 23.569-15.62 37.717v17.421c0.188 66.91 54.383 121.101 121.289 121.293zM688.077 117.21c-31.671-0.115-57.318-25.762-57.429-57.434v-6.622h234.79v6.622c-0.111 31.671-25.762 57.318-57.434 57.434h-119.927zM748.036 447.987c-64.823 0-117.372-52.548-117.372-117.367 0-64.823 52.548-117.372 117.372-117.372 64.819 0 117.367 52.548 117.367 117.372 0 64.819-52.548 117.367-117.367 117.367zM694.665 330.62c0 29.474 23.898 53.367 53.372 53.367s53.367-23.893 53.367-53.367c0-29.478-23.893-53.372-53.367-53.372s-53.372 23.893-53.372 53.372z" />
<glyph unicode="&#xe90d;" glyph-name="theme-change" horiz-adv-x="1067" d="M484.284 630.742c8.209-8.104 18.999-12.375 29.999-12.375 5.67 0 11.375 1.146 16.815 3.459 15.979 6.792 26.189 22.437 26.061 39.521 0 11.458-4.48 22.208-12.668 30.417-7.979 7.875-18.935 12.375-30.144 12.375l-1.058-0.061c-1.472-0.081-3.243-0.177-4.753-0.46-15.023-2.021-27.938-11.896-33.877-26.313-6.541-16.146-2.726-34.458 9.626-46.563zM683.959 448.909c0-23.582 19.209-42.79 42.918-42.752 23.497 0.043 42.667 19.273 42.667 42.795 0 11.52-4.501 22.31-12.544 30.272-8.081 8.081-18.79 12.518-30.208 12.518h-0.209c-11.456-0.043-22.208-4.54-30.251-12.689-8.081-8.145-12.459-18.935-12.373-30.144zM364.438 556.514c-23.563 0-42.771 19.084-42.938 42.521-0.083 23.604 18.917 42.875 42.396 43.083 9.729 0.25 22.562-4.416 30.646-12.5 7.937-7.854 12.562-18.937 12.562-30.292 0-23.521-19.146-42.729-42.667-42.813zM634.377 268.535c8.081-8 18.748-12.42 29.914-12.42h0.294c23.582 0 42.748 19.209 42.748 42.334 0.166 11.418-4.373 22.669-12.497 30.75-7.962 7.962-18.918 12.501-30.212 12.501h-0.333c-23.458-0.124-42.539-19.29-42.539-42.833 0-11.46 4.497-22.251 12.625-30.332zM664.708 556.515c-23.748 0-42.957 19.188-42.957 42.771 0 23.5 19.081 42.708 42.581 42.833 12.582 1.041 22.502-4.479 30.502-12.5 8.081-7.979 12.663-19.229 12.497-30.75 0-23.062-19.123-42.271-42.624-42.354zM455.543 31.744h57.749c229.312 0 416.021 186.581 416.145 415.957l-0.043 12.207c-8.124 218.439-185.664 395.96-404.395 404.147-111.125 3.417-216.834-37.125-297.647-113.458-80.812-76.312-127.062-179.562-130.229-291.623v-53.73c0-64.708 52.646-117.376 117.375-117.376h88.042c29.437 0 53.375-23.957 53.375-53.376 0-5.001-0.688-9.873-2.104-14.707l-11-38.417c-10.063-35.209-2.896-73.664 19.125-102.874s57-46.707 93.606-46.75zM513.293 95.744h-57.668c-16.644 0.043-32.562 7.957-42.583 21.291-10.021 13.248-13.271 30.75-8.687 46.75l10.938 38.208c3.063 10.5 4.625 21.419 4.625 32.499 0 64.708-52.646 117.376-117.375 117.376h-88.042c-29.437 0-53.375 23.957-53.375 53.376l-0.021 52.813c2.688 94.062 41.812 181.437 110.208 246.020 68.333 64.583 157.709 99.104 251.563 96.021 185.186-6.938 335.646-157.417 342.562-341.375v-10.999c-0.124-194.065-158.084-351.979-352.145-351.979z" />
<glyph unicode="&#xe90e;" glyph-name="5g-data" horiz-adv-x="1067" d="M313.699 558.272c1.834 16.175 15.518 28.395 31.796 28.395h92.201c17.677 0 32-14.327 32-32s-14.323-32-32-32h-63.624l-3.41-30.080h22.833c47.115 0 85.332-38.221 85.332-85.333 0-54.080-43.866-97.92-97.961-97.92-34.392 0-63.444 17.958-80.429 43.84-9.696 14.78-5.577 34.615 9.199 44.314 14.776 9.694 34.615 5.577 44.31-9.199 6.141-9.361 15.83-14.955 26.92-14.955 18.778 0 33.963 15.211 33.963 33.92 0 11.767-9.566 21.333-21.333 21.333h-58.667c-9.114 0-17.797 3.887-23.868 10.684-6.071 6.801-8.955 15.863-7.928 24.922l10.667 94.080zM662.605 586.667c-76.595 0-138.667-62.071-138.667-138.667s62.071-138.667 138.667-138.667h40.021c25.122 0 45.312 20.369 45.312 45.312v93.355c0 17.673-14.327 32-32 32h-41.472c-17.673 0-32-14.327-32-32s14.327-32 32-32h9.472v-42.667h-21.333c-41.25 0-74.667 33.417-74.667 74.667s33.417 74.667 74.667 74.667h38.485c17.673 0 32 14.327 32 32s-14.327 32-32 32h-38.485zM807.428 742.156c162.458-162.458 162.458-425.856 0-588.313-162.462-162.458-425.856-162.458-588.314 0s-162.458 425.856 0 588.313c162.458 162.458 425.856 162.458 588.314 0zM762.172 696.902c-137.463 137.465-360.338 137.465-497.802 0s-137.465-360.338 0-497.802c137.463-137.463 360.339-137.463 497.802 0 137.459 137.459 137.451 360.336 0 497.802z" />
<glyph unicode="&#xe90f;" glyph-name="analytics-arrow" horiz-adv-x="1067" d="M717.504 573.529c7.821-3.242 14.059-9.477 17.297-17.302 1.57-3.797 2.355-7.828 2.398-11.872l0.034-0.174 0.038-0.18v-119.979c0-17.673-14.327-32-32-32s-32 14.327-32 32v42.731l-113.395-113.399c-5.999-6.003-14.14-9.374-22.626-9.374s-16.627 3.371-22.626 9.374l-73.374 73.37-97.351-97.348c-12.497-12.497-32.758-12.497-45.255 0s-12.497 32.755 0 45.252l119.979 119.979c6 6.003 14.141 9.374 22.627 9.374s16.627-3.371 22.626-9.374l73.374-73.37 90.769 90.765h-42.726c-17.673 0-32 14.327-32 32s14.327 32 32 32h119.979c4.169 0 8.32-0.852 12.233-2.471zM257.271 864h512c88.371 0 160-71.628 160-160v-512c0-88.371-71.629-160-160-160h-512c-88.372 0-160 71.629-160 160v512c0 88.372 71.628 160 160 160zM769.271 96c53.026 0 96 42.974 96 96v512c0 53.026-42.974 96-96 96h-512c-53.026 0-96-42.974-96-96v-512c0-53.026 42.974-96 96-96h512z" />
<glyph unicode="&#xe910;" glyph-name="calculator" horiz-adv-x="1067" d="M308.562 320.043c0 18.406 14.851 34.133 34.133 34.133 18.868 0 34.133-15.266 34.133-34.133s-15.265-34.133-34.133-34.133c-18.868 0-34.133 15.266-34.133 34.133zM479.198 319.322c-0.452 20.535 16.495 34.769 34.125 34.769 18.867 0 34.133-15.266 34.133-34.133s-15.266-34.133-34.133-34.133c-18.654 0-33.788 14.925-34.125 33.498zM649.894 320.043c0 18.406 14.852 34.133 34.133 34.133 18.867 0 34.133-15.266 34.133-34.133s-15.266-34.133-34.133-34.133c-18.867 0-34.133 15.266-34.133 34.133zM342.696 482.176c-19.282 0-34.133-15.727-34.133-34.133 0-18.867 15.266-34.133 34.133-34.133s34.133 15.266 34.133 34.133c0 18.867-15.265 34.133-34.133 34.133zM513.323 482.091c-17.63 0-34.577-14.234-34.125-34.769 0.337-18.573 15.471-33.498 34.125-33.498 18.867 0 34.133 15.266 34.133 34.133s-15.266 34.133-34.133 34.133zM684.028 482.176c-19.281 0-34.133-15.727-34.133-34.133 0-18.867 15.266-34.133 34.133-34.133s34.133 15.266 34.133 34.133c0 18.867-15.266 34.133-34.133 34.133zM308.562 192.043c0 18.406 14.851 34.133 34.133 34.133 18.868 0 34.133-15.266 34.133-34.133s-15.265-34.133-34.133-34.133c-18.868 0-34.133 15.266-34.133 34.133zM479.198 191.322c-0.452 20.535 16.495 34.769 34.125 34.769 18.867 0 34.133-15.266 34.133-34.133s-15.266-34.133-34.133-34.133c-18.654 0-33.788 14.925-34.125 33.498zM649.894 192.043c0 18.406 14.852 34.133 34.133 34.133 18.867 0 34.133-15.266 34.133-34.133s-15.266-34.133-34.133-34.133c-18.867 0-34.133 15.266-34.133 34.133zM182.604 749.44c0 63.241 51.276 114.517 114.517 114.517h432.256c63.27 0 114.56-51.265 114.56-114.517v-602.88c0-63.275-51.264-114.56-114.517-114.56h-432.299c-63.241 0-114.517 51.277-114.517 114.517v602.922zM297.122 799.957c-27.895 0-50.517-22.622-50.517-50.517v-98.773h533.334v98.773c0 27.884-22.613 50.517-50.56 50.517h-432.256zM779.938 146.56v440.107h-533.334v-440.149c0-27.895 22.622-50.517 50.517-50.517h432.299c27.883 0 50.517 22.613 50.517 50.56z" />
<glyph unicode="&#xe911;" glyph-name="card-add" horiz-adv-x="1067" d="M97.271 661.333v-341.333c0-88.367 71.634-160 160-160h256c17.673 0 32 14.327 32 32s-14.327 32-32 32h-256c-53.020 0-96 42.982-96 96v266.667h704v-224c0-17.673 14.327-32 32-32s32 14.327 32 32v298.667c0 88.366-71.633 160-160 160h-512c-88.366 0-160-71.634-160-160zM161.271 661.333c0 53.019 42.98 96 96 96h512c53.018 0 96-42.981 96-96v-10.667h-704v10.667zM267.938 448c0 17.673 14.327 32 32 32h106.667c17.673 0 32-14.327 32-32s-14.327-32-32-32h-106.667c-17.673 0-32 14.327-32 32zM790.605 266.667c17.673 0 32-14.327 32-32v-53.333h53.333c17.673 0 32-14.327 32-32s-14.327-32-32-32h-53.333v-53.333c0-17.673-14.327-32-32-32s-32 14.327-32 32v53.333h-53.333c-17.673 0-32 14.327-32 32s14.327 32 32 32h53.333v53.333c0 17.673 14.327 32 32 32z" />
<glyph unicode="&#xe912;" glyph-name="card-disable-lock" horiz-adv-x="1067" d="M97.271 661.333v-341.333c0-88.371 71.628-160 160-160h128c17.673 0 32 14.327 32 32s-14.327 32-32 32h-128c-53.026 0-96 42.974-96 96v266.667h704v-53.333c0-17.673 14.327-32 32-32s32 14.327 32 32v128c0 88.372-71.629 160-160 160h-512c-88.372 0-160-71.628-160-160zM161.271 661.333c0 53.026 42.974 96 96 96h512c53.026 0 96-42.974 96-96v-10.667h-704v10.667zM267.938 448c0 17.673 14.327 32 32 32h106.667c17.673 0 32-14.327 32-32s-14.327-32-32-32h-106.667c-17.673 0-32 14.327-32 32zM477.687 236.459c0 136.755 110.37 247.125 247.125 247.125s247.125-110.37 247.125-247.125c0-136.755-110.37-247.125-247.125-247.125s-247.125 110.37-247.125 247.125zM724.813 419.584c-101.41 0-183.125-81.715-183.125-183.125 0-39.104 12.151-75.281 32.896-104.973l255.202 255.202c-29.692 20.745-65.869 32.896-104.973 32.896zM875.042 341.431l-255.202-255.202c29.692-20.745 65.869-32.896 104.973-32.896 101.41 0 183.125 81.715 183.125 183.125 0 39.104-12.151 75.281-32.896 104.973z" />
<glyph unicode="&#xe913;" glyph-name="card-payment-transfer" horiz-adv-x="1067" d="M97.271 661.333v-341.333c0-88.367 71.634-160 160-160h170.667c17.673 0 32 14.327 32 32s-14.327 32-32 32h-170.667c-53.020 0-96 42.982-96 96v266.667h704v-224c0-17.673 14.327-32 32-32s32 14.327 32 32v298.667c0 88.366-71.633 160-160 160h-512c-88.366 0-160-71.634-160-160zM161.271 661.333c0 53.019 42.98 96 96 96h512c53.018 0 96-42.981 96-96v-10.667h-704v10.667zM267.938 448c0 17.673 14.327 32 32 32h106.667c17.673 0 32-14.327 32-32s-14.327-32-32-32h-106.667c-17.673 0-32 14.327-32 32zM789.312 299.959c12.493 12.497 32.755 12.497 45.252 0l85.333-85.333c6.251-6.246 9.374-14.438 9.374-22.626 0-4.339-0.866-8.478-2.428-12.25s-3.878-7.309-6.946-10.377l-85.333-85.333c-12.497-12.497-32.759-12.497-45.252 0-12.497 12.497-12.497 32.755 0 45.252l30.703 30.707h-221.41c-17.673 0-32 14.327-32 32s14.327 32 32 32h221.41l-30.703 30.707c-12.497 12.497-12.497 32.755 0 45.252z" />
<glyph unicode="&#xe914;" glyph-name="card-refund" horiz-adv-x="1067" d="M97.104 661.441v-341.475c0-88.401 71.652-160.051 160.053-160.051h128.053c17.673 0 32 14.323 32 32 0 17.673-14.327 32-32 32h-128.053c-53.055 0-96.053 42.995-96.053 96.051v266.792h704.321v-96.053c0-17.673 14.327-32 32-32s32 14.327 32 32v170.736c0 88.401-71.654 160.053-160.055 160.053h-512.212c-88.401 0-160.053-71.652-160.053-160.053zM161.104 661.441c0 53.055 42.998 96.053 96.053 96.053h512.212c53.056 0 96.055-42.998 96.055-96.053v-10.683h-704.321v10.683zM267.854 448.017c0 17.673 14.327 32 32 32h106.667c17.673 0 31.999-14.327 31.999-32s-14.325-32-31.999-32h-106.667c-17.673 0-32 14.327-32 32zM706.206 257.207c12.497-12.497 12.497-32.759 0-45.257l-30.741-30.741h136.602c29.495 0 53.372 23.876 53.372 53.367 0 29.495-23.876 53.372-53.372 53.372h-42.684c-17.673 0-32 14.327-32 32s14.327 32 32 32h42.684c64.841 0 117.372-52.531 117.372-117.372 0-64.836-52.531-117.367-117.372-117.367h-136.606l30.746-30.741c12.497-12.497 12.497-32.759 0-45.257s-32.759-12.497-45.257 0l-85.367 85.372c-12.497 12.497-12.497 32.755 0 45.252l85.367 85.372c12.497 12.493 32.759 12.493 45.257 0z" />
<glyph unicode="&#xe915;" glyph-name="chain-connect" horiz-adv-x="1067" d="M602.176 878.549c18.001 18.003 42.419 28.118 67.878 28.118h120.55c53.018 0 96-42.981 96-96v-213.333c0-53.019-42.982-96-96-96h-170.667c-53.022 0-96 42.981-96 96v163.215c0 25.46 10.112 49.879 28.117 67.882l50.121 50.119zM670.054 842.667c-8.486 0-16.623-3.372-22.626-9.373l-50.116-50.119c-6.003-6.001-9.374-14.14-9.374-22.627v-163.215c0-17.673 14.327-32 32-32h170.667c17.673 0 32 14.327 32 32v213.333c0 17.673-14.327 32-32 32h-120.55zM203.938 832c0 17.673-14.327 32-32 32s-32-14.327-32-32v-554.667c0-64.802 52.532-117.333 117.333-117.333h128c17.673 0 32 14.327 32 32s-14.327 32-32 32h-128c-29.455 0-53.333 23.876-53.333 53.333v352h181.333c17.673 0 32 14.327 32 32s-14.327 32-32 32h-181.333v138.667zM670.054 437.333c-25.459 0-49.877-10.116-67.878-28.117l-50.121-50.121c-18.005-18.001-28.117-42.419-28.117-67.883v-163.213c0-53.018 42.978-96 96-96h170.667c53.018 0 96 42.982 96 96v213.333c0 53.018-42.982 96-96 96h-120.55zM647.428 363.959c6.003 6.003 14.14 9.374 22.626 9.374h120.55c17.673 0 32-14.327 32-32v-213.333c0-17.673-14.327-32-32-32h-170.667c-17.673 0-32 14.327-32 32v163.213c0 8.491 3.371 16.627 9.374 22.63l50.116 50.116z" />
<glyph unicode="&#xe916;" glyph-name="contact" horiz-adv-x="1067" d="M523.938 426.675c64.802 0 117.333 52.535 117.333 117.335 0 64.802-52.531 117.333-117.333 117.333s-117.334-52.532-117.334-117.333c0-64.8 52.532-117.335 117.334-117.335zM470.605 544.010c0 29.455 23.876 53.333 53.333 53.333 29.453 0 53.333-23.878 53.333-53.333s-23.881-53.335-53.333-53.335c-29.457 0-53.333 23.881-53.333 53.335zM342.604 266.675c0 64.802 52.532 117.333 117.334 117.333h128c64.802 0 117.333-52.531 117.333-117.333 0-17.673-14.327-32-32-32s-32 14.327-32 32c0 29.457-23.881 53.333-53.333 53.333h-128c-29.457 0-53.334-23.876-53.334-53.333 0-17.673-14.327-32-32-32s-32 14.327-32 32zM139.792 586.74h-32.021c-17.673 0-32 14.327-32 32s14.327 32 32 32h32.021v96.069c0 64.839 52.529 117.369 117.369 117.369h512.213c64.841 0 117.367-52.529 117.367-117.369v-597.582c0-64.841-52.527-117.367-117.367-117.367h-512.213c-64.839 0-117.369 52.527-117.369 117.367v96.055h-32.021c-17.673 0-32 14.327-32 32s14.327 32 32 32h32.021v106.726h-32.021c-17.673 0-32 14.327-32 32 0 17.677 14.327 32 32 32h32.021v106.731zM257.161 800.177c-29.493 0-53.369-23.876-53.369-53.369v-96.069h32.032c17.673 0 32-14.327 32-32s-14.327-32-32-32h-32.032v-106.731h23.538c17.673 0 32-14.323 32-32 0-17.673-14.327-32-32-32h-23.538v-106.726h23.538c17.673 0 32-14.327 32-32s-14.327-32-32-32h-23.538v-96.055c0-29.495 23.875-53.367 53.369-53.367h512.213c29.491 0 53.367 23.872 53.367 53.367v597.582c0 29.493-23.876 53.369-53.367 53.369h-512.213z" />
<glyph unicode="&#xe917;" glyph-name="controller" horiz-adv-x="1067" d="M246.604 512c0 17.673 14.327 32 32 32h32v32c0 17.673 14.327 32 32 32s32-14.327 32-32v-32h32c17.673 0 32-14.327 32-32s-14.327-32-32-32h-32v-32c0-17.673-14.327-32-32-32s-32 14.327-32 32v32h-32c-17.673 0-32 14.327-32 32zM705.246 436.092c0.013 11.337-4.484 22.208-12.497 30.225-8.017 8.013-18.893 12.51-30.225 12.497-23.552-0.030-42.624-19.136-42.611-42.688 0.009-23.548 19.098-42.637 42.65-42.645 23.548-0.013 42.654 19.063 42.684 42.611zM692.787 618.025c8.017-8.015 12.514-18.889 12.501-30.223-0.030-23.55-19.136-42.623-42.684-42.614-23.552 0.009-42.641 19.098-42.65 42.648-0.013 23.55 19.059 42.655 42.611 42.685 11.332 0.015 22.208-4.482 30.221-12.496zM738.483 554.646c-11.337 0.015-22.212-4.482-30.225-12.496-8.017-8.015-12.51-18.89-12.497-30.222 0.030-23.552 19.132-42.624 42.684-42.615 23.548 0.009 42.637 19.098 42.65 42.65 0.009 23.549-19.063 42.654-42.611 42.684zM556.553 542.191c8.017 8.015 18.889 12.511 30.225 12.497 23.548-0.029 42.624-19.134 42.611-42.683-0.009-23.552-19.098-42.641-42.645-42.65-23.552-0.009-42.658 19.063-42.688 42.611-0.013 11.337 4.484 22.21 12.497 30.225zM294.354 812.028c45.624 15.208 95.421 11.668 138.435-9.839l21.001-10.499c1.481-0.741 3.115-1.126 4.77-1.126h109.423c1.655 0 3.29 0.386 4.77 1.126l21.001 10.5c43.017 21.507 92.813 25.046 138.436 9.839l27.767-9.255c58.786-19.596 103.497-67.855 118.554-127.965l84.796-338.496c10.372-41.408 11.413-84.604 3.038-126.464l-5.363-26.82c-6.101-30.511-24.077-57.353-49.967-74.615l-31.804-21.205c-28.25-18.833-65.651-16.235-91.025 6.319l-155.264 138.014c-1.954 1.732-4.476 2.692-7.087 2.692h-225.124c-2.612 0-5.134-0.956-7.087-2.692l-155.264-138.010c-25.376-22.558-62.774-25.156-91.023-6.323l-31.806 21.205c-25.891 17.263-43.866 44.1-49.969 74.615l-5.364 26.82c-8.372 41.86-7.334 85.056 3.038 126.464l84.794 338.496c15.058 60.111 59.77 108.37 118.558 127.965l27.767 9.255zM404.168 744.946c-27.833 13.916-60.054 16.206-89.576 6.366l-27.767-9.255c-38.040-12.679-66.97-43.906-76.714-82.801l-84.793-338.496c-8.068-32.205-8.875-65.805-2.363-98.359l5.364-26.82c2.774-13.871 10.944-26.069 22.713-33.916l31.805-21.205c4.035-2.688 9.379-2.321 13.003 0.905l155.264 138.010c13.668 12.147 31.319 18.859 49.606 18.859h225.125c18.287 0 35.938-6.711 49.604-18.859l155.264-138.010c3.627-3.226 8.969-3.597 13.005-0.905l31.804 21.205c11.767 7.846 19.938 20.045 22.711 33.916l5.367 26.82c6.511 32.555 5.705 66.155-2.364 98.359l-84.796 338.496c-9.745 38.895-38.673 70.121-76.715 82.801l-27.767 9.255c-29.521 9.84-61.743 7.55-89.574-6.366l-20.996-10.499c-10.368-5.184-21.803-7.883-33.395-7.883h-109.423c-11.593 0-23.027 2.699-33.393 7.883l-20.999 10.499z" />
<glyph unicode="&#xe918;" glyph-name="copy" horiz-adv-x="1067" d="M267.854 202.581v-53.406c0-64.802 52.532-117.333 117.333-117.333h426.917c64.798 0 117.333 52.531 117.333 117.333v426.915c0 64.801-52.535 117.333-117.333 117.333h-53.419v53.369c0 64.821-52.548 117.369-117.367 117.369h-426.845c-64.821 0-117.369-52.548-117.369-117.369v-426.844c0-64.823 52.548-117.367 117.369-117.367h53.381zM161.104 746.793c0 29.475 23.894 53.369 53.369 53.369h426.845c29.474 0 53.367-23.894 53.367-53.369v-53.369h-309.498c-64.801 0-117.333-52.532-117.333-117.334v-309.508h-53.381c-29.475 0-53.369 23.893-53.369 53.367v426.844zM331.854 576.090c0 29.455 23.878 53.334 53.333 53.334h426.917c29.453 0 53.333-23.878 53.333-53.333v-426.915c0-29.457-23.881-53.333-53.333-53.333h-426.917c-29.455 0-53.333 23.876-53.333 53.333v426.914z" />
<glyph unicode="&#xe919;" glyph-name="data-signal" horiz-adv-x="1067" d="M769.271 778.667c-41.225 0-74.667-33.442-74.667-74.667v-512c0-41.225 33.442-74.667 74.667-74.667h85.333c41.225 0 74.667 33.442 74.667 74.667v512c0 41.225-33.442 74.667-74.667 74.667h-85.333zM758.605 704c0 5.879 4.787 10.667 10.667 10.667h85.333c5.879 0 10.667-4.788 10.667-10.667v-512c0-5.879-4.787-10.667-10.667-10.667h-85.333c-5.879 0-10.667 4.787-10.667 10.667v512zM395.938 490.667c0 41.225 33.443 74.667 74.667 74.667h85.333c41.225 0 74.667-33.442 74.667-74.667v-298.667c0-41.225-33.442-74.667-74.667-74.667h-85.333c-41.225 0-74.667 33.442-74.667 74.667v298.667zM470.605 501.333c-5.879 0-10.667-4.787-10.667-10.667v-298.667c0-5.879 4.787-10.667 10.667-10.667h85.333c5.879 0 10.667 4.787 10.667 10.667v298.667c0 5.879-4.787 10.667-10.667 10.667h-85.333zM97.271 320c0 41.225 33.441 74.667 74.667 74.667h85.333c41.225 0 74.667-33.442 74.667-74.667v-128c0-41.225-33.442-74.667-74.667-74.667h-85.333c-41.225 0-74.667 33.442-74.667 74.667v128zM171.938 330.667c-5.879 0-10.667-4.787-10.667-10.667v-128c0-5.879 4.788-10.667 10.667-10.667h85.333c5.879 0 10.667 4.787 10.667 10.667v128c0 5.879-4.788 10.667-10.667 10.667h-85.333z" />
<glyph unicode="&#xe91a;" glyph-name="electric-flash-lightning" horiz-adv-x="1067" d="M451.703 819.078c41.801 60.317 136.503 30.839 136.503-42.673v-211.364h181.581c60.407 0 95.962-67.88 61.594-117.574l-256.478-370.487c-41.805-60.318-136.512-30.852-136.512 42.658v211.362h-181.585c-60.411 0-96.037 67.857-61.585 117.589l256.482 370.489zM510.285 785.407c-1.314-0.408-2.957-1.292-4.638-3.717l-256.46-370.46c-4.271-6.161 0.113-14.596 7.62-14.596h214.4c18.125 0 32.819-14.69 32.819-32.815v-244.181c0-2.961 0.849-4.621 1.694-5.7 1.007-1.284 2.65-2.496 4.813-3.174 2.159-0.674 4.207-0.614 5.777-0.128 1.314 0.41 2.961 1.293 4.642 3.716l256.448 370.449c4.288 6.199-0.179 14.605-7.612 14.605h-214.4c-18.125 0-32.815 14.694-32.815 32.819v244.181c0 2.96-0.849 4.62-1.698 5.699-1.007 1.286-2.65 2.499-4.813 3.174-2.159 0.675-4.207 0.615-5.777 0.129z" />
<glyph unicode="&#xe91b;" glyph-name="file-cancel" horiz-adv-x="1067" d="M820.062 708.979l-120.666 120.646c-22.165 22.167-51.627 34.375-82.957 34.375h-306.002c-64.708 0-117.333-52.625-117.333-117.333v-597.333c0-64.708 52.625-117.333 117.333-117.333h426.668c64.708 0 117.333 52.625 117.333 117.333v476.687c0 30.875-12.544 61.125-34.377 82.959zM774.814 663.729c3.738-3.747 6.234-8.422 8.695-13.062h-131.738c-5.875 0-10.667 4.791-10.667 10.667v131.737c4.634-2.461 9.306-4.951 13.039-8.695l120.67-120.646zM737.105 96h-426.668c-29.417 0-53.333 23.915-53.333 53.333v597.333c0 29.417 23.917 53.333 53.333 53.333h266.668v-138.667c0-41.167 33.498-74.667 74.667-74.667h138.667v-437.333c0-29.419-23.919-53.333-53.333-53.333zM630.438 266.667h-213.334c-17.667 0-32-14.332-32-32s14.333-32 32-32h213.334c17.664 0 32 14.332 32 32s-14.336 32-32 32zM447.812 340.041c6.251-6.251 14.438-9.374 22.626-9.374s16.375 3.123 22.626 9.374l30.707 30.711 30.707-30.711c6.251-6.251 14.417-9.374 22.626-9.374s16.375 3.123 22.626 9.374c12.497 12.501 12.497 32.751 0 45.252l-30.711 30.707 30.711 30.707c12.497 12.501 12.497 32.751 0 45.252-12.501 12.497-32.751 12.497-45.252 0l-30.707-30.711-30.707 30.711c-12.501 12.497-32.751 12.497-45.252 0-12.501-12.501-12.501-32.751 0-45.252l30.707-30.707-30.707-30.707c-12.501-12.501-12.501-32.751 0-45.252z" />
<glyph unicode="&#xe91c;" glyph-name="file-check" horiz-adv-x="1067" d="M310.438 864h306.006c31.108 0 60.962-12.381 82.957-34.375l120.661-120.661c21.995-21.994 34.377-51.848 34.377-82.958v-306.005c0-17.673-14.327-32-32-32s-32 14.327-32 32v266.667h-138.667c-41.225 0-74.667 33.442-74.667 74.667v138.667h-266.668c-29.474 0-53.333-23.86-53.333-53.333v-597.333c0-29.474 23.86-53.333 53.333-53.333h256.001c17.673 0 32-14.327 32-32s-14.327-32-32-32h-256.001c-64.82 0-117.333 52.514-117.333 117.333v597.333c0 64.82 52.514 117.333 117.333 117.333zM641.105 793.943v-132.61c0-5.879 4.787-10.667 10.667-10.667h132.608c-2.487 4.765-5.7 9.171-9.574 13.042l-120.661 120.661c-3.87 3.871-8.273 7.086-13.039 9.574zM930.398 169.374c12.497 12.497 12.497 32.755 0 45.252s-32.759 12.497-45.257 0l-105.37-105.37-62.707 62.703c-12.497 12.497-32.759 12.497-45.257 0-12.493-12.497-12.493-32.755 0-45.252l85.333-85.333c12.497-12.497 32.759-12.497 45.257 0l128 128zM321.104 490.667c0 17.673 14.327 32 32 32h256.001c17.673 0 32-14.327 32-32s-14.327-32-32-32h-256.001c-17.673 0-32 14.327-32 32zM353.104 394.667c-17.673 0-32-14.327-32-32s14.327-32 32-32h256.001c17.673 0 32 14.327 32 32s-14.327 32-32 32h-256.001zM321.104 234.667c0 17.673 14.327 32 32 32h184.748c17.673 0 32-14.327 32-32s-14.327-32-32-32h-184.748c-17.673 0-32 14.327-32 32z" />
<glyph unicode="&#xe91d;" glyph-name="file-search" horiz-adv-x="1067" d="M310.327 864.161h306.134c31.117 0 60.983-12.384 82.982-34.385l120.713-120.712c21.999-22.001 34.385-51.864 34.385-82.983v-6.683l0.009-0.658-0.009-0.658v-84.711c0-17.671-14.327-31.999-32-31.999s-32 14.327-32 31.999v53.369h-138.731c-41.237 0-74.684 33.449-74.684 74.685v138.737h-266.799c-29.493 0-53.369-23.875-53.369-53.369v-597.583c0-29.491 23.876-53.367 53.369-53.367h170.757c17.673 0 32-14.327 32-32s-14.327-32-32-32h-170.757c-64.839 0-117.369 52.527-117.369 117.367v597.583c0 64.839 52.529 117.369 117.369 117.369zM641.126 794.107v-132.684c0-5.889 4.796-10.685 10.684-10.685h132.681c-2.492 4.776-5.713 9.191-9.591 13.070l-120.713 120.712c-3.874 3.877-8.29 7.096-13.060 9.586zM881.165 135.872c22.17 31.194 35.209 69.325 35.209 110.49 0 105.425-85.478 190.955-190.959 190.955-105.425 0-190.955-85.474-190.955-190.955s85.53-190.959 190.955-190.959c41.169 0 79.305 13.043 110.494 35.213l49.404-49.399c12.497-12.497 32.759-12.497 45.257 0 12.493 12.497 12.493 32.755 0 45.252l-49.404 49.404zM598.46 246.362c0 70.123 56.862 126.955 126.955 126.955 70.123 0 126.959-56.862 126.959-126.955 0-70.089-56.87-126.959-126.959-126.959-70.093 0-126.955 56.836-126.955 126.959z" />
<glyph unicode="&#xe91e;" glyph-name="file-transfer-stack" horiz-adv-x="1067" d="M193.104 746.667c0 64.82 52.514 117.333 117.333 117.333h306.006c31.108 0 60.962-12.381 82.957-34.375l120.661-120.661c21.995-21.994 34.377-51.848 34.377-82.958v-220.672c0-17.673-14.327-32-32-32s-32 14.327-32 32v181.333h-138.667c-41.225 0-74.667 33.442-74.667 74.667v138.667h-266.668c-29.474 0-53.333-23.86-53.333-53.333v-597.333c0-29.474 23.86-53.333 53.333-53.333h170.668c17.673 0 32-14.327 32-32s-14.327-32-32-32h-170.668c-64.82 0-117.333 52.514-117.333 117.333v597.333zM641.105 793.943v-132.61c0-5.879 4.787-10.667 10.667-10.667h132.608c-2.487 4.765-5.7 9.171-9.574 13.042l-120.661 120.661c-3.87 3.871-8.273 7.086-13.039 9.574zM321.104 490.667c0 17.673 14.327 32 32 32h256.001c17.673 0 32-14.327 32-32s-14.327-32-32-32h-256.001c-17.673 0-32 14.327-32 32zM353.104 394.667c-17.673 0-32-14.327-32-32s14.327-32 32-32h256.001c17.673 0 32 14.327 32 32s-14.327 32-32 32h-256.001zM321.104 234.667c0 17.673 14.327 32 32 32h184.748c17.673 0 32-14.327 32-32s-14.327-32-32-32h-184.748c-17.673 0-32 14.327-32 32zM577.105 149.21c0 17.673 14.327 32 32 32h221.525l-30.729 30.724c-12.493 12.497-12.493 32.759 0 45.257 12.497 12.497 32.759 12.497 45.257 0l84.885-84.89c4.885-4.685 8.286-10.901 9.429-17.882 1.617-9.83-1.365-20.271-8.947-27.853l-85.367-85.367c-12.497-12.497-32.759-12.497-45.257 0-12.493 12.497-12.493 32.755 0 45.252l30.758 30.758h-221.555c-17.673 0-32 14.327-32 32z" />
<glyph unicode="&#xe91f;" glyph-name="filter-sort" horiz-adv-x="1067" d="M811.938 842.656h-597.334c-41.167 0-74.667-33.5-74.667-74.667v-110.333c0-19.729 8-38.979 21.875-52.792l212.792-212.771v-253.376c0-26.458 11.958-50.999 32.812-67.29 15.229-11.874 33.56-18.086 52.334-18.086 6.938 0 13.956 0.836 20.894 2.586l106.628 26.667c38.080 9.459 64.666 43.541 64.666 82.79v226.705l212.834 212.796c14.080 14.125 21.833 32.875 21.833 52.771v110.333c0 41.167-33.502 74.667-74.667 74.667zM822.605 657.656c0-2.792-1.169-5.562-3.127-7.542l-222.165-222.147c-2.948-2.948-5.282-6.485-6.903-10.394-1.621-3.913-2.47-8.064-2.47-12.233v-239.957c0-9.83-6.626-18.334-16.166-20.706l-106.667-26.667c-8.627-2.21-15.232 1.455-18.291 3.874-3.063 2.415-8.209 7.748-8.209 16.832v266.624c0 4.169-0.853 8.32-2.47 12.233-1.626 3.908-3.955 7.445-6.903 10.394l-222.231 222.209c-1.937 1.937-3.062 4.666-3.062 7.479v110.333c0 5.875 4.791 10.667 10.667 10.667h597.334c5.875 0 10.667-4.792 10.667-10.667v-110.333z" />
<glyph unicode="&#xe920;" glyph-name="folder-add" horiz-adv-x="1067" d="M523.763 480c17.673 0.004 32.004-14.319 32.009-31.991l0.009-32.017 31.983 0.009c17.673 0.004 32.004-14.319 32.009-31.991s-14.319-32.004-31.991-32.009l-31.983-0.009 0.009-31.983c0.004-17.673-14.319-32.004-31.991-32.009s-32.004 14.319-32.009 31.991l-0.009 31.983-32.017-0.009c-17.673-0.004-32.004 14.319-32.009 31.991s14.319 32.004 31.991 32.009l32.017 0.009-0.009 32.017c-0.004 17.673 14.319 32.004 31.991 32.009zM225.104 821.333c-64.801 0-117.333-52.532-117.333-117.333v-512c0-64.802 52.532-117.333 117.333-117.333h597.334c64.802 0 117.333 52.531 117.333 117.333v384c0 64.801-52.531 117.333-117.333 117.333h-274.347c-3.533 0-6.835 1.747-8.819 4.667l-61.692 90.668c-13.901 20.434-37.018 32.665-61.733 32.665h-190.744zM171.771 704c0 29.455 23.878 53.333 53.333 53.333h190.744c3.531 0 6.833-1.747 8.819-4.666l61.69-90.665c13.901-20.436 37.018-32.669 61.734-32.668h274.347c29.453 0 53.333-23.878 53.333-53.333v-384c0-29.457-23.881-53.333-53.333-53.333h-597.334c-29.455 0-53.333 23.876-53.333 53.333v512z" />
<glyph unicode="&#xe921;" glyph-name="folder-dot" horiz-adv-x="1067" d="M351.815 406.839c12.497 12.497 32.758 12.497 45.255 0l0.213-0.213c12.497-12.497 12.497-32.755 0-45.252l-0.213-0.213c-12.497-12.497-32.758-12.497-45.255 0l-0.213 0.213c-12.497 12.497-12.497 32.755 0 45.252l0.213 0.213zM546.402 406.839c-12.497 12.497-32.755 12.497-45.252 0l-0.213-0.213c-12.497-12.497-12.497-32.755 0-45.252l0.213-0.213c12.497-12.497 32.755-12.497 45.252 0l0.213 0.213c12.497 12.497 12.497 32.755 0 45.252l-0.213 0.213zM695.735 406.839c-12.497 12.497-32.755 12.497-45.252 0l-0.213-0.213c-12.497-12.497-12.497-32.755 0-45.252l0.213-0.213c12.497-12.497 32.755-12.497 45.252 0l0.213 0.213c12.497 12.497 12.497 32.755 0 45.252l-0.213 0.213zM107.771 704c0 64.801 52.532 117.333 117.333 117.333h190.744c24.715 0 47.832-12.231 61.733-32.665l61.692-90.668c1.984-2.92 5.286-4.667 8.819-4.667h274.347c64.802 0 117.333-52.532 117.333-117.333v-384c0-64.802-52.531-117.333-117.333-117.333h-597.334c-64.801 0-117.333 52.531-117.333 117.333v512zM225.104 757.333c-29.455 0-53.333-23.878-53.333-53.333v-512c0-29.457 23.878-53.333 53.333-53.333h597.334c29.453 0 53.333 23.876 53.333 53.333v384c0 29.455-23.881 53.333-53.333 53.333h-274.347c-24.717 0-47.834 12.232-61.734 32.668l-61.69 90.665c-1.986 2.919-5.288 4.666-8.819 4.666h-190.744z" />
<glyph unicode="&#xe922;" glyph-name="folder-open" horiz-adv-x="1067" d="M107.771 704c0 64.82 52.514 117.333 117.333 117.333h190.507c24.974 0 48.265-12.493 62.124-33.279l59.989-89.984c1.937-2.908 5.286-4.737 8.875-4.737h190.507c64.819 0 117.333-52.514 117.333-117.333v-12.014c68.689-10.43 114.948-79.754 94.618-149.019l-75.136-256c-14.665-49.971-60.484-84.301-112.58-84.301h-572.63c-44.724 0-80.939 36.215-80.939 80.939v548.395zM268.109 138.667h493.231c23.68 0 44.501 15.595 51.17 38.323l75.136 256c10.027 34.159-15.565 68.343-51.17 68.343h-419.884c-23.547 0-44.322-15.437-51.098-38.033l-97.385-324.634zM790.438 565.333v10.667c0 29.474-23.859 53.333-53.333 53.333h-190.507c-24.905 0-48.273 12.435-62.127 33.236l-59.988 89.984c-2.015 3.023-5.346 4.78-8.873 4.78h-190.507c-29.474 0-53.333-23.86-53.333-53.333v-548.395c0-9.378 7.561-16.939 16.939-16.939 7.483 0 14.064 4.915 16.189 12.023l99.293 330.991c14.899 49.681 60.599 83.652 112.401 83.652h373.846z" />
<glyph unicode="&#xe923;" glyph-name="heart-favorite" horiz-adv-x="1067" d="M97.271 543.573c0 131.217 100.531 277.76 258.133 277.76 71.037 0 122.782-28.385 157.867-59.479 35.085 31.094 86.827 59.479 157.867 59.479 157.602 0 258.133-146.543 258.133-277.76 0-68.544-26.88-132.092-64.567-187.584-37.722-55.539-87.471-104.815-136.401-145.545-49.054-40.832-98.18-73.813-135.467-96.597-18.667-11.405-34.5-20.339-46.050-26.496-5.747-3.068-10.59-5.525-14.281-7.292-1.805-0.862-3.618-1.694-5.261-2.377-0.781-0.324-1.924-0.781-3.213-1.212-0.631-0.213-1.673-0.546-2.953-0.858-0.819-0.201-3.883-0.947-7.808-0.947s-6.972 0.742-7.787 0.943c-1.28 0.311-2.342 0.649-2.978 0.862-1.289 0.431-2.428 0.887-3.209 1.212-1.647 0.683-3.46 1.515-5.261 2.377-3.691 1.766-8.533 4.224-14.281 7.292-11.55 6.157-27.388 15.091-46.050 26.496-37.286 22.784-86.414 55.765-135.468 96.597-48.93 40.73-98.679 90.005-136.399 145.545-37.69 55.492-64.568 119.040-64.568 187.584zM355.404 757.333c-112.905 0-194.133-107.75-194.133-213.76 0-51.563 20.268-102.682 53.512-151.629 33.213-48.9 78.184-93.841 124.401-132.309 46.092-38.366 92.539-69.572 127.893-91.174 17.655-10.79 32.405-19.098 42.79-24.636 1.203-0.64 2.338-1.242 3.405-1.801 1.067 0.559 2.202 1.161 3.405 1.801 10.385 5.538 25.135 13.845 42.79 24.636 35.354 21.602 81.801 52.809 127.893 91.174 46.217 38.468 91.187 83.409 124.399 132.309 33.242 48.947 53.513 100.066 53.513 151.629 0 106.010-81.229 213.76-194.133 213.76-65.621 0-108.237-32.41-133.636-61.86-6.076-7.048-14.925-11.1-24.23-11.1-9.31 0-18.155 4.052-24.235 11.1-25.399 29.45-68.010 61.86-133.632 61.86z" />
<glyph unicode="&#xe924;" glyph-name="key" horiz-adv-x="1067" d="M626.479 609.364c-26.377-0.125-47.834-21.667-47.834-48.041 0-12.854 5.001-24.938 14.127-34.001 9.041-8.998 21.039-13.956 33.664-13.956h0.209c26.458 0 48 21.541 48 47.999 0 26.438-21.542 48-48.166 48zM825.728 760.156c-53.124 53.208-123.75 82.5-198.831 82.5-75.106 0-145.69-29.292-198.771-82.5-73.417-73.583-99.834-181.708-70.022-280.561l-230.104-230.669c-6-5.999-9.354-14.123-9.354-22.583v-141.001c0-17.664 14.333-32 32-32h140.708c8.5 0 16.646 3.375 22.667 9.417l58.625 58.795c5.979 5.999 9.333 14.123 9.333 22.583v46.332h30.521c17.665 0 32.001 14.332 32.001 32v30.669h46.165c8.499 0 16.644 3.375 22.647 9.417l29.666 29.709c99.375-31.253 208.29-4.962 282.748 69.581 109.542 109.833 109.542 288.521 0 398.313zM780.437 407.053c-61.5-61.542-153.374-80.294-233.98-48.166-11.874 4.749-25.481 2.001-34.5-7.125l-34.56-34.624h-64.897c-17.667 0-32-14.336-32-32v-30.669h-30.521c-17.667 0-32-14.332-32-32v-65.126l-39.917-40h-95.417v95.753l234.833 235.396c8.937 8.956 11.752 22.31 7.208 34.103-30.958 80.437-11.833 171.645 48.729 232.354 40.998 41.083 95.522 63.709 153.481 63.709 57.997 0 112.499-22.625 153.498-63.709 84.71-84.875 84.71-223.001 0.043-307.895z" />
<glyph unicode="&#xe925;" glyph-name="limit-coin" horiz-adv-x="1067" d="M353.125 480c-61.948 0-119.497 9.98-162.742 27.277-4.978 1.988-9.574 4.373-14.172 6.758-1.482 0.772-2.965 1.54-4.461 2.295v-89.459c0-0.034 0.010-0.068 0.021-0.107 0.010-0.034 0.021-0.068 0.021-0.102 0-0.209 0-3.588 6.752-9.971 6.872-6.502 18.537-13.833 35.601-20.659 33.956-13.585 83.063-22.699 138.938-22.699 17.672 0 32-14.327 32-32s-14.328-32-32-32c-61.93 0-119.469 9.98-162.708 27.277-4.983 1.993-9.582 4.378-14.184 6.767-1.476 0.764-2.952 1.532-4.441 2.283v-89.664c0-0.205 0-3.584 6.755-9.967 6.875-6.507 18.544-13.837 35.617-20.663 33.969-13.585 83.086-22.699 138.961-22.699 17.675 0 32-14.327 32-32s-14.325-32-32-32c-61.93 0-119.476 9.98-162.724 27.273-21.536 8.614-41.112 19.669-55.828 33.587-14.787 13.982-26.781 33.054-26.781 56.474v512c0 23.417 11.995 42.487 26.779 56.466 14.713 13.914 34.286 24.971 55.82 33.586 43.247 17.297 100.794 27.281 162.735 27.281s119.488-9.984 162.735-27.281c21.534-8.615 41.105-19.672 55.821-33.586 14.78-13.979 26.778-33.050 26.778-56.466v-128c0-17.672-14.327-32-32-32s-32 14.328-32 32v46.985c-1.489-0.752-2.961-1.516-4.437-2.281-4.595-2.383-9.186-4.765-14.161-6.756-43.247-17.297-100.795-27.281-162.735-27.281s-119.487 9.984-162.735 27.281c-4.977 1.992-9.568 4.373-14.164 6.756-1.474 0.764-2.947 1.529-4.435 2.281v-89.446c0-0.036 0.010-0.070 0.021-0.104s0.021-0.068 0.021-0.104c0-0.207 0-3.588 6.752-9.974 6.872-6.502 18.537-13.83 35.607-20.659 33.961-13.583 83.078-22.698 138.974-22.698 17.672 0 32-14.327 32-32s-14.328-32-32-32zM214.117 798.627c-17.070-6.828-28.739-14.159-35.615-20.661-6.752-6.386-6.752-9.766-6.752-9.965s0-3.581 6.752-9.967c6.875-6.503 18.545-13.833 35.615-20.661 33.966-13.589 83.084-22.706 138.966-22.706s104.999 9.117 138.966 22.706c17.071 6.828 28.74 14.159 35.614 20.661 6.187 5.851 6.677 9.044 6.716 9.713l-0.004 0.253c0 0.042 0.026 0.078 0.026 0.12-0.013 0.437-0.256 3.719-6.737 9.846-6.874 6.503-18.543 13.833-35.614 20.661-33.967 13.589-83.083 22.706-138.966 22.706s-105-9.117-138.966-22.706zM939.75 468.983v-170.099c0-0.038 0.013-0.077 0.026-0.115 0.009-0.034 0.017-0.064 0.017-0.102 0-0.060-0.009-0.119-0.021-0.175-0.009-0.060-0.021-0.115-0.021-0.175v-170.317c0-23.415-11.989-42.487-26.769-56.469-14.716-13.918-34.287-24.977-55.821-33.587-43.234-17.293-100.77-27.273-162.701-27.277l-0.055 0.004c-61.935 0.004-119.458 9.98-162.688 27.273-21.534 8.61-41.105 19.669-55.821 33.587-14.784 13.982-26.769 33.054-26.769 56.469v341.333c0 0.107 0.030 0.205 0.060 0.307 0.026 0.094 0.055 0.188 0.060 0.29 0.192 23.13 12.011 42.014 26.65 55.868 14.711 13.923 34.287 24.98 55.821 33.592 43.243 17.297 100.796 27.276 162.701 27.276 61.909 0 119.458-9.979 162.701-27.276 21.53-8.612 41.109-19.669 55.821-33.592 14.374-13.611 25.911-32.128 26.5-54.699 0.017-0.29 0.094-0.559 0.175-0.828 0.090-0.303 0.179-0.606 0.179-0.939 0-0.060-0.009-0.119-0.021-0.175-0.009-0.060-0.021-0.115-0.021-0.175zM513.126 388.309v-89.643c0-0.209 0-3.593 6.75-9.975 6.874-6.502 18.539-13.833 35.605-20.659 33.963-13.585 83.081-22.699 138.978-22.699 55.893 0 105.011 9.114 138.974 22.699 17.071 6.827 28.732 14.157 35.605 20.659 6.037 5.713 6.643 8.87 6.711 9.651v89.95c-1.51-0.764-3.008-1.54-4.506-2.317-4.557-2.364-9.114-4.723-14.046-6.699-43.243-17.297-100.791-27.277-162.739-27.277-61.952 0-119.501 9.98-162.743 27.277-4.962 1.984-9.54 4.361-14.123 6.737-1.485 0.768-2.97 1.54-4.467 2.295zM555.482 499.968c-17.071-6.827-28.727-14.157-35.593-20.651-6.724-6.366-6.724-9.724-6.724-9.924 0-0.030-0.013-0.064-0.021-0.094-0.004-0.017-0.009-0.030-0.009-0.047 0.004-0.35 0.158-3.665 6.741-9.894 6.874-6.502 18.539-13.833 35.605-20.659 33.963-13.585 83.081-22.699 138.978-22.699 55.893 0 105.011 9.114 138.974 22.699 17.071 6.827 28.732 14.157 35.605 20.659 5.978 5.653 6.626 8.802 6.707 9.626-0.004 0.073-0.021 0.137-0.043 0.201-0.021 0.068-0.038 0.137-0.038 0.209 0 0.205 0 3.563-6.72 9.924-6.865 6.494-18.526 13.824-35.597 20.651-33.963 13.585-83.085 22.699-138.935 22.699s-104.969-9.114-138.931-22.699zM833.391 97.365c17.071 6.827 28.732 14.157 35.605 20.659 6.754 6.383 6.754 9.762 6.754 9.971v89.63c-1.51-0.764-3.008-1.54-4.506-2.317-4.557-2.364-9.114-4.723-14.046-6.699-43.243-17.297-100.791-27.277-162.739-27.277-61.952 0-119.501 9.98-162.743 27.277-4.962 1.984-9.54 4.361-14.123 6.737-1.485 0.768-2.97 1.54-4.467 2.295v-89.647c0-0.209 0-3.588 6.75-9.971 6.874-6.502 18.539-13.833 35.605-20.659 33.958-13.581 83.068-22.699 138.957-22.699 55.893 0 104.998 9.118 138.953 22.699z" />
<glyph unicode="&#xe926;" glyph-name="link" horiz-adv-x="1067" d="M310.604 608c-82.466 0-149.333-66.868-149.333-149.333s66.868-149.333 149.333-149.333h100.736c17.673 0 32-14.327 32-32s-14.327-32-32-32h-100.736c-117.812 0-213.333 95.522-213.333 213.333s95.521 213.333 213.333 213.333h100.736c17.673 0 32-14.327 32-32s-14.327-32-32-32h-100.736zM310.604 448c0 17.673 14.327 32 32 32h341.334c17.673 0 32-14.327 32-32s-14.327-32-32-32h-341.334c-17.673 0-32 14.327-32 32zM615.206 672c-17.673 0-32-14.327-32-32s14.327-32 32-32h100.736c82.466 0 149.333-66.868 149.333-149.333s-66.867-149.333-149.333-149.333h-100.736c-17.673 0-32-14.327-32-32s14.327-32 32-32h100.736c117.815 0 213.333 95.522 213.333 213.333s-95.518 213.333-213.333 213.333h-100.736z" />
<glyph unicode="&#xe927;" glyph-name="mobile-pay-late" horiz-adv-x="1067" d="M641.271 906.667c-17.673 0-32-14.327-32-32s14.327-32 32-32c76.578 0 138.667-62.089 138.667-138.667 0-17.673 14.327-32 32-32s32 14.327 32 32c0 111.924-90.743 202.667-202.667 202.667zM342.604 714.667c-29.474 0-53.333-23.86-53.333-53.333v-512c0-29.474 23.86-53.333 53.333-53.333h256c29.474 0 53.333 23.859 53.333 53.333v341.333c0 17.673 14.327 32 32 32s32-14.327 32-32v-341.333c0-64.819-52.514-117.333-117.333-117.333h-256c-64.82 0-117.333 52.514-117.333 117.333v512c0 64.82 52.513 117.333 117.333 117.333h128c17.673 0 32-14.327 32-32s-14.327-32-32-32h-128zM598.605 778.667c-17.673 0-32-14.327-32-32s14.327-32 32-32c29.474 0 53.333-23.86 53.333-53.333 0-17.673 14.327-32 32-32s32 14.327 32 32c0 64.82-52.514 117.333-117.333 117.333zM422.813 202.667c-17.673 0-32-14.327-32-32s14.327-32 32-32h95.575c17.673 0 32 14.327 32 32s-14.327 32-32 32h-95.575z" />
<glyph unicode="&#xe928;" glyph-name="more-dot-horizontal" horiz-adv-x="1067" d="M257.175 501.342c29.46 0 53.342-23.885 53.342-53.342 0-29.461-23.882-53.342-53.342-53.342s-53.342 23.881-53.342 53.342c0 29.457 23.882 53.342 53.342 53.342zM566.643 448c0 29.457-23.881 53.342-53.342 53.342s-53.342-23.885-53.342-53.342c0-29.461 23.881-53.342 53.342-53.342s53.342 23.881 53.342 53.342zM822.746 448c0 29.457-23.881 53.342-53.342 53.342-29.457 0-53.342-23.885-53.342-53.342 0-29.461 23.885-53.342 53.342-53.342 29.461 0 53.342 23.881 53.342 53.342z" />
<glyph unicode="&#xe929;" glyph-name="more-dot-vertical" horiz-adv-x="1067" d="M566.622 704.116c0-29.46-23.881-53.342-53.342-53.342s-53.342 23.882-53.342 53.342c0 29.46 23.881 53.342 53.342 53.342s53.342-23.882 53.342-53.342zM513.28 394.65c29.461 0 53.342 23.881 53.342 53.342s-23.881 53.342-53.342 53.342c-29.461 0-53.342-23.881-53.342-53.342s23.881-53.342 53.342-53.342zM513.28 138.543c29.461 0 53.342 23.885 53.342 53.346 0 29.457-23.881 53.342-53.342 53.342s-53.342-23.885-53.342-53.342c0-29.461 23.881-53.346 53.342-53.346z" />
<glyph unicode="&#xe92f;" glyph-name="phone" horiz-adv-x="1067" d="M555.145 864.75c100.126 0 194.253-39 265.041-109.812 70.835-70.792 109.837-164.938 109.837-265.065 0-17.664-14.336-32-32-32-17.668 0-32 14.336-32 32 0 83.023-32.333 161.085-91.085 219.814-58.709 58.729-136.751 91.063-219.793 91.063-17.664 0-32 14.333-32 32s14.336 32 32 32zM782.229 323.209c-36.25 36.292-99.584 36.25-135.753 0l-37.333-39.377c-55.164 24.128-108.331 60.919-153.749 106.295-45.166 45.184-81.833 98.142-105.812 152.227l35.25 35.25c40.083 40.083 41.687 101.292 3.625 139.354l-50.042 50.063c-45.75 45.75-120.187 45.729-165.896 0.021l-27.834-27.792c-38.771-38.771-55.625-95.229-45.083-151.021 23.396-123.773 94.125-249.772 199.146-354.727 105.083-105.084 231.064-175.795 354.729-199.168 10.957-2.044 21.956-3.085 32.832-3.085 44.459 0 87.044 17.003 118.208 48.166l27.75 27.793c22.17 22.123 34.377 51.584 34.377 82.957 0 31.334-12.207 60.791-34.377 82.999l-50.039 50.044zM787.021 152.457l-27.75-27.789c-23.834-23.791-58.957-34.044-93.918-27.418-111.147 20.958-225.271 85.414-321.353 181.5-96.021 96-160.479 210.103-181.521 321.354-6.604 35 3.667 70.104 27.438 93.875l27.833 27.791c10.396 10.375 24.063 15.584 37.708 15.584 13.667 0 27.313-5.208 37.708-15.584l50.042-50.063c13.104-13.104 11.584-33.646-3.625-48.854l-35.25-35.25c-18.521-18.5-23.937-46.729-13.562-70.126 27.375-62.187 68.646-121.852 119.375-172.604 51.001-50.999 110.939-92.373 173.292-119.667 23.002-10.167 50.79-4.749 68.958 13.419l39.377 39.33c11.998 12.087 33.122 12.087 45.205 0l50.044-50.039c10.082-10.082 15.625-23.501 15.625-37.751s-5.542-27.622-15.625-37.709zM557.564 628.958c36.655 0 70.891-14.141 96.678-39.891l0.030-0.047c26.291-26.271 40.461-61.311 39.919-98.687-0.252-17.668 13.875-32.209 31.539-32.461h0.461c17.459 0 31.748 14.025 32 31.543 0.789 54.833-20.041 106.271-58.667 144.854l-0.141 0.094c-38.49 38.497-90.88 58.302-144.674 58.573-17.664-0.25-31.791-14.771-31.561-32.437 0.252-17.521 14.519-31.563 32-31.563l0.751 0.012c0.508 0.010 1.105 0.023 1.664 0.009z" />
<glyph unicode="&#xe930;" glyph-name="PIN" horiz-adv-x="1067" d="M612.062 458.667h-197.562c-43.833 0-79.5 35.644-79.5 79.479v100.063c0 37.896 26.706 69.56 62.25 77.474v32.318c0 63.958 52.043 116 116.021 116 62.874 0 115.998-53.125 115.998-116v-32.292c35.584-7.883 62.293-39.575 62.293-77.5v-100.063c0-43.835-35.665-79.479-79.501-79.479zM612.062 522.667c8.542 0 15.501 6.938 15.501 15.479v100.063c0 8.541-6.916 15.479-15.458 15.479h-197.605c-8.541 0-15.5-6.938-15.5-15.479v-100.063c0-8.541 6.959-15.479 15.5-15.479h197.562zM565.269 748c0 27.708-24.29 52-51.998 52-28.689 0-52.023-23.334-52.023-52v-30.313h104.021v30.313zM54.604 213.333c0 100.002 81.354 181.333 181.333 181.333h554.667c99.998 0 181.333-81.331 181.333-181.333s-81.335-181.333-181.333-181.333h-554.667c-99.98 0-181.333 81.331-181.333 181.333zM118.604 213.333c0-64.708 52.625-117.333 117.333-117.333h554.667c64.708 0 117.333 52.625 117.333 117.333s-52.625 117.333-117.333 117.333h-554.667c-64.709 0-117.333-52.625-117.333-117.333zM257.271 168.252c24.899 0 45.083 20.181 45.083 45.082s-20.185 45.082-45.083 45.082c-24.899 0-45.084-20.181-45.084-45.082s20.185-45.082 45.084-45.082zM473.020 213.333c0-24.9-20.181-45.082-45.082-45.082s-45.084 20.181-45.084 45.082c0 24.9 20.185 45.082 45.084 45.082s45.082-20.181 45.082-45.082zM598.605 168.252c24.9 0 45.082 20.181 45.082 45.082s-20.181 45.082-45.082 45.082c-24.9 0-45.086-20.181-45.086-45.082s20.186-45.082 45.086-45.082zM814.353 213.333c0-24.9-20.181-45.082-45.082-45.082s-45.086 20.181-45.086 45.082c0 24.9 20.186 45.082 45.086 45.082s45.082-20.181 45.082-45.082z" />
<glyph unicode="&#xe931;" glyph-name="question-circle" horiz-adv-x="1067" d="M395.938 540.458c0 64.82 52.515 117.333 117.334 117.333s117.333-52.513 117.333-117.333c0-50.952-33.207-77.819-56.311-93.393l-0.038-0.026c-19.524-13.12-28.983-23.671-28.983-41.707v-10.667c0-17.673-14.327-32-32-32s-32 14.327-32 32v10.667c0 51.665 33.617 78.916 57.267 94.814 19.038 12.834 28.066 23.002 28.066 40.311 0 29.474-23.859 53.333-53.333 53.333s-53.333-23.86-53.333-53.333c0-17.672-14.327-32-32-32s-32 14.327-32 32zM513.229 309.333c-23.479 0-42.735-19.051-42.624-42.782 0.064-23.509 19.145-42.551 42.667-42.551 23.561 0 42.667 19.106 42.667 42.667 0 23.646-19.187 42.667-42.709 42.667zM97.271 448c0 229.769 186.231 416 416 416s416-186.231 416-416-186.231-416-416-416c-229.77 0-416 186.231-416 416zM513.271 800c-194.423 0-352-157.577-352-352s157.577-352 352-352c194.423 0 352 157.577 352 352s-157.577 352-352 352z" />
<glyph unicode="&#xe932;" glyph-name="read" horiz-adv-x="1067" d="M534.605 437.333c8.188 0 16.375 3.123 22.626 9.374l192 192.001c12.497 12.5 12.497 32.75 0 45.25-12.501 12.5-32.751 12.5-45.252 0l-192-191.999c-12.501-12.501-12.501-32.751 0-45.252 6.251-6.251 14.438-9.374 22.626-9.374zM151.896 470.626c-12.5 12.497-32.75 12.497-45.25 0-12.5-12.501-12.5-32.751 0-45.252l213.333-213.333c6.25-6.251 14.438-9.374 22.625-9.374s16.375 3.123 22.625 9.374c12.5 12.501 12.5 32.751 0 45.252l-213.333 213.333zM874.645 598.625c12.501 12.5 32.751 12.5 45.252 0 12.497-12.5 12.497-32.75 0-45.25l-341.333-341.335c-6.251-6.251-14.417-9.374-22.626-9.374-8.188 0-16.375 3.123-22.626 9.374l-256 256c-12.5 12.501-12.5 32.751 0 45.252 12.5 12.497 32.75 12.497 45.25 0l233.376-233.378 318.707 318.71z" />
<glyph unicode="&#xe933;" glyph-name="search" horiz-adv-x="1067" d="M139.938 470.741c0-193.63 156.961-350.592 350.592-350.592 85.291 0 163.469 30.455 224.252 81.084l117.197-117.193c12.493-12.497 32.755-12.497 45.252 0s12.497 32.755 0 45.252l-117.197 117.197c50.633 60.783 81.088 138.961 81.088 224.252 0 193.63-156.962 350.592-350.592 350.592s-350.592-156.962-350.592-350.592zM203.938 470.741c0 158.284 128.308 286.592 286.592 286.592s286.592-128.308 286.592-286.592c0-158.285-128.307-286.592-286.592-286.592s-286.592 128.307-286.592 286.592z" />
<glyph unicode="&#xe934;" glyph-name="share" horiz-adv-x="1067" d="M604.484 794.153v-61.255c-88.043-6.54-168.951-40.135-230.069-97.754-68.734-64.802-110.582-158.279-110.582-272.477v-42.667c0-15.074 10.521-28.105 25.257-31.283s29.69 4.361 35.901 18.095c51.503 113.903 154.083 163.456 279.493 170.436v-83.051c0-60.617 71.889-92.241 116.663-51.716l227.827 206.54c31.287 28.315 30.443 77.728-1.719 104.942l-227.81 193.385c-45.367 38.514-114.961 6.283-114.961-53.195zM668.484 794.153c0 4.949 5.756 7.619 9.54 4.405l227.887-193.449c2.633-2.224 2.671-6.329 0.111-8.646l-227.84-206.545c-1.212-1.097-2.197-1.408-2.961-1.51-0.926-0.128-2.095-0.004-3.298 0.529-1.199 0.529-2.065 1.306-2.586 2.061-0.422 0.623-0.853 1.549-0.853 3.2v115.925c0 17.673-14.327 31.998-32 31.998-114.453 0-224.321-29.831-301.963-108.709 12.717 64.427 42.817 116.529 83.797 155.164 55.342 52.177 132.381 81.502 218.166 81.502 17.673 0 32 14.327 32 32v92.075zM214.604 863.999c-64.82 0-117.333-52.514-117.333-117.333v-597.332c0-64.819 52.513-117.333 117.333-117.333h597.334c64.819 0 117.333 52.514 117.333 117.333v170.667c0 17.673-14.327 32-32 32s-32-14.327-32-32v-170.667c0-29.474-23.859-53.333-53.333-53.333h-597.334c-29.474 0-53.333 23.859-53.333 53.333v597.332c0 29.474 23.86 53.333 53.333 53.333h213.334c17.673 0 32 14.327 32 32s-14.327 32-32 32h-213.334z" />
<glyph unicode="&#xe935;" glyph-name="shield" horiz-adv-x="1067" d="M523.75 31.851c-10.436 0-20.851 1.417-30.976 4.292-199.814 57.54-337.377 235.708-342.481 443.396v185.646c-0.25 38.083 29.417 70.771 67.542 74.229 96.062 7.5 185.104 44.542 257.894 107.125 27.981 23.437 68.147 23.437 95.795 0.25 73.122-62.854 162.125-99.896 257.788-107.354 38.545-3.521 68.211-36.25 67.917-74.542v-184.603c-5.124-208.482-142.665-386.645-342.268-444.105-10.253-2.876-20.732-4.335-31.211-4.335zM214.293 480.747c4.562-179.477 123.479-333.397 296.043-383.061 8.768-2.5 18.185-2.458 27.063 0.043 172.454 49.664 291.413 203.75 295.829 383.351v184.064c0.043 5.625-3.955 10.042-9.331 10.521-108.877 8.5-210.624 50.813-293.79 122.333-3.546 2.959-9.105 3-12.962-0.25-82.854-71.25-184.602-113.562-293.936-122.104-4.958-0.459-8.958-4.875-8.916-10.25v-184.646z" />
<glyph unicode="&#xe936;" glyph-name="shield-add-plus" horiz-adv-x="1067" d="M523.75 565.369c17.673 0 32-14.327 32-32v-53.369h53.385c17.673 0 32-14.327 32-32s-14.327-32-32-32h-53.385v-53.367c0-17.673-14.327-32-32-32s-32 14.327-32 32v53.367h-53.355c-17.673 0-32 14.327-32 32s14.327 32 32 32h53.355v53.369c0 17.673 14.327 32 32 32zM492.774 36.143c10.125-2.876 20.54-4.292 30.976-4.292 10.479 0 20.958 1.459 31.211 4.335 199.603 57.459 337.143 235.622 342.268 444.105v184.603c0.294 38.292-29.372 71.021-67.917 74.542-95.663 7.459-184.666 44.5-257.788 107.354-27.648 23.187-67.814 23.187-95.795-0.25-72.79-62.583-161.832-99.625-257.894-107.125-38.125-3.458-67.792-36.145-67.542-74.229v-185.646c5.104-207.689 142.667-385.856 342.481-443.396zM510.336 97.685c-172.564 49.664-291.48 203.584-296.043 383.061v184.646c-0.042 5.375 3.958 9.792 8.916 10.25 109.333 8.541 211.081 50.854 293.936 122.104 3.857 3.25 9.417 3.209 12.962 0.25 83.166-71.521 184.913-113.833 293.79-122.333 5.376-0.479 9.374-4.896 9.331-10.521v-184.064c-4.416-179.601-123.375-333.687-295.829-383.351-8.879-2.5-18.295-2.543-27.063-0.043z" />
<glyph unicode="&#xe937;" glyph-name="shield-check" horiz-adv-x="1067" d="M701.577 496.158c12.497 12.497 12.497 32.755 0 45.254-12.497 12.497-32.759 12.497-45.257 0l-154.351-154.352-83.571 83.567c-12.497 12.497-32.758 12.497-45.255 0s-12.497-32.755 0-45.252l106.195-106.197c6.003-6.003 14.144-9.374 22.63-9.374s16.627 3.371 22.626 9.374l176.981 176.981zM523.75 31.851c-10.436 0-20.851 1.417-30.976 4.292-199.814 57.54-337.377 235.708-342.481 443.396v185.646c-0.25 38.083 29.417 70.771 67.542 74.229 96.062 7.5 185.104 44.542 257.894 107.125 27.981 23.437 68.147 23.437 95.795 0.25 73.122-62.854 162.125-99.896 257.788-107.354 38.545-3.521 68.211-36.25 67.917-74.542v-184.603c-5.124-208.482-142.665-386.645-342.268-444.105-10.253-2.876-20.732-4.335-31.211-4.335zM214.293 480.747c4.562-179.477 123.479-333.397 296.043-383.061 8.768-2.5 18.185-2.458 27.063 0.043 172.454 49.664 291.413 203.75 295.829 383.351v184.064c0.043 5.625-3.955 10.042-9.331 10.521-108.877 8.5-210.624 50.813-293.79 122.333-3.546 2.959-9.105 3-12.962-0.25-82.854-71.25-184.602-113.562-293.936-122.104-4.958-0.459-8.958-4.875-8.916-10.25v-184.646z" />
<glyph unicode="&#xe938;" glyph-name="sign-in" horiz-adv-x="1067" d="M97.104 704.105c0 64.84 52.529 117.369 117.369 117.369h384.162c64.836 0 117.367-52.529 117.367-117.369v-85.369c0-17.673-14.327-32-32-32s-32 14.327-32 32v85.369c0 29.493-23.876 53.369-53.367 53.369h-384.162c-29.493 0-53.369-23.876-53.369-53.369v-512.212c0-29.495 23.875-53.372 53.369-53.372h384.162c29.491 0 53.367 23.876 53.367 53.372v85.367c0 17.673 14.327 32 32 32s32-14.327 32-32v-85.367c0-64.841-52.531-117.372-117.367-117.372h-384.162c-64.839 0-117.369 52.531-117.369 117.372v512.212zM438.583 448c0 17.673 14.327 32 32 32h392.26l-73.404 73.379c-12.501 12.495-12.501 32.756-0.009 45.255s32.755 12.502 45.257 0.007l128.051-128.011c1.387-1.387 2.637-2.889 3.733-4.484 2.803-4.066 4.693-8.811 5.363-13.935 0.188-1.387 0.282-2.795 0.282-4.207 0-1.417-0.094-2.825-0.277-4.211-0.922-6.933-4.096-13.419-9.097-18.419l-128.055-128.055c-12.493-12.497-32.755-12.497-45.252 0s-12.497 32.759 0 45.257l73.425 73.425h-392.277c-17.673 0-32 14.327-32 32z" />
<glyph unicode="&#xe939;" glyph-name="sim" horiz-adv-x="1067" d="M435.063 522.667c-47.243 0-81.792-40.341-81.792-85.333v-149.333c0-44.975 34.532-85.333 81.75-85.333h199.125c47.241 0 81.792 40.341 81.792 85.333v149.333c0 44.975-34.534 85.333-81.749 85.333h-199.125zM417.271 437.333c0 13.888 9.993 21.333 17.792 21.333h199.125c7.735 0 17.749-7.428 17.749-21.333v-149.333c0-13.888-9.997-21.333-17.792-21.333h-199.125c-7.74 0-17.75 7.428-17.75 21.333v149.333zM299.938 864c-64.82 0-117.333-52.514-117.333-117.333v-597.333c0-64.819 52.513-117.333 117.333-117.333h469.334c64.819 0 117.333 52.514 117.333 117.333v427.947c0 30.433-11.853 59.777-33.101 81.678l-164.113 169.359c-22.101 22.857-52.557 35.683-84.258 35.683h-305.195zM246.604 746.667c0 29.474 23.86 53.333 53.333 53.333h305.195c14.451 0 28.305-5.884 38.289-16.21l164.156-169.404c9.634-9.926 15.027-23.259 15.027-37.106v-427.947c0-29.474-23.859-53.333-53.333-53.333h-469.334c-29.474 0-53.333 23.859-53.333 53.333v597.333z" />
<glyph unicode="&#xe93a;" glyph-name="sort" horiz-adv-x="1067" d="M535.898 811.961c-12.497 12.497-32.759 12.497-45.252 0l-213.335-213.333c-12.497-12.497-12.497-32.758 0-45.255s32.758-12.497 45.255 0l190.706 190.706 190.707-190.706c12.493-12.497 32.755-12.497 45.252 0s12.497 32.758 0 45.255l-213.333 213.333zM749.231 297.374l-213.333-213.333c-12.497-12.497-32.759-12.497-45.252 0l-213.335 213.333c-12.497 12.497-12.497 32.755 0 45.252s32.758 12.497 45.255 0l190.706-190.703 190.707 190.703c12.493 12.497 32.755 12.497 45.252 0s12.497-32.755 0-45.252z" />
<glyph unicode="&#xe93b;" glyph-name="star-favorite" horiz-adv-x="1067" d="M427.264 811.014c16.218 32.658 49.536 53.315 86.003 53.315s69.781-20.655 86.003-53.31l0.038-0.076 83.563-166.694 185.237-26.48c36.454-5.128 66.765-30.641 78.037-65.686 11.273-35.035 1.527-73.427-25.084-98.843l-0.055-0.055-133.013-127.467 31.595-181.129c6.374-36.019-8.273-72.538-37.773-94.17-29.495-21.632-68.719-24.623-101.154-7.727l-0.068 0.038-167.33 86.468-167.401-86.468c-32.433-16.892-71.648-13.897-101.142 7.731-29.503 21.636-44.148 58.155-37.772 94.174l0.009 0.051 31.584 181.030-133.048 127.501c-26.625 25.417-36.379 63.821-25.107 98.865 11.273 35.045 41.588 60.56 78.040 65.686l185.238 26.479 83.599 166.765zM513.267 800.328c-12.173 0-23.292-6.899-28.698-17.805l-0.064-0.131-91.13-181.793c-4.7-9.376-13.696-15.854-24.079-17.338l-201.941-28.867c-12.164-1.705-22.282-10.217-26.043-21.911-3.761-11.691-0.504-24.508 8.385-32.981l0.056-0.055 145.383-139.324c7.697-7.373 11.215-18.099 9.383-28.604l-34.548-198.020c-2.135-12.019 2.75-24.209 12.594-31.428s22.937-8.213 33.759-2.564l0.122 0.064 182.134 94.076c9.216 4.762 20.164 4.757 29.376 0l182.251-94.182c10.825-5.649 23.915-4.655 33.762 2.564 9.843 7.219 14.729 19.409 12.591 31.428l-0.017 0.094-34.53 197.973c-1.83 10.5 1.685 21.227 9.382 28.599l145.442 139.379c8.887 8.474 12.147 21.291 8.384 32.981-3.763 11.694-13.879 20.206-26.044 21.911l-0.085 0.012-201.856 28.855c-10.381 1.484-19.379 7.962-24.077 17.338l-91.196 181.923c-5.406 10.906-16.525 17.805-28.698 17.805z" />
<glyph unicode="&#xe93c;" glyph-name="stock-transfer" horiz-adv-x="1067" d="M115.396 822.573c0 17.673-14.327 32-32 32s-32-14.327-32-32v-755.539c0-17.677 14.327-32 32-32h813.867c17.673 0 32 14.323 32 32 0 17.673-14.327 32-32 32h-781.867v723.539zM920.657 683.175c2.607-2.789 4.625-5.93 6.046-9.264 1.655-3.861 2.569-8.112 2.569-12.577v-113.792c0-17.673-14.327-32-32-32s-32 14.327-32 32v36.547l-199.637-199.606c-29.163-29.214-76.459-29.184-105.613-0.026l-91.349 91.349c-4.122 4.13-10.876 4.203-15.078 0l-216.362-216.363c-12.497-12.497-32.758-12.497-45.255 0s-12.497 32.755 0 45.252l216.363 216.363c29.156 29.158 76.435 29.206 105.597-0.009l91.337-91.341c4.203-4.203 10.927-4.16 15.049-0.026l199.684 199.65h-36.527c-17.673 0-32 14.327-32 32s14.327 32 32 32h113.792c8.444 0 16.124-3.271 21.841-8.615 0.533-0.497 1.050-1.012 1.545-1.544z" />
<glyph unicode="&#xe93d;" glyph-name="support-headphone" horiz-adv-x="1067" d="M513.271 864c167.433 0 303.782-133.007 309.167-299.13 59.895-5.308 106.833-55.588 106.833-116.87v-128c0-64.819-52.514-117.333-117.333-117.333h-10.667v-10.667c0-64.819-52.514-117.333-117.333-117.333h-64.875c-12.663-31.266-43.328-53.333-79.125-53.333h-53.333c-47.113 0-85.334 38.221-85.334 85.333s38.221 85.333 85.334 85.333h53.333c35.797 0 66.462-22.067 79.125-53.333h64.875c29.474 0 53.333 23.859 53.333 53.333v17.856c-25.225 11.989-42.667 37.705-42.667 67.477v213.333c0 37.534 27.725 68.619 63.804 73.882-5.184 130.918-112.947 235.452-245.137 235.452s-239.953-104.533-245.139-235.452c36.081-5.263 63.805-36.348 63.805-73.882v-213.333c0-41.225-33.442-74.667-74.667-74.667h-42.667c-64.82 0-117.333 52.514-117.333 117.333v128c0 61.282 46.935 111.562 106.831 116.87 5.383 166.123 141.737 299.13 309.169 299.13zM214.604 501.333c-29.474 0-53.333-23.859-53.333-53.333v-128c0-29.474 23.86-53.333 53.333-53.333h42.667c5.879 0 10.667 4.787 10.667 10.667v213.333c0 5.879-4.788 10.667-10.667 10.667h-42.667zM561.271 106.667c0 11.767-9.566 21.333-21.333 21.333h-53.333c-11.767 0-21.333-9.566-21.333-21.333s9.566-21.333 21.333-21.333h53.333c11.767 0 21.333 9.566 21.333 21.333zM769.271 266.667h42.667c29.474 0 53.333 23.859 53.333 53.333v128c0 29.474-23.859 53.333-53.333 53.333h-42.667c-5.879 0-10.667-4.787-10.667-10.667v-213.333c0-5.879 4.787-10.667 10.667-10.667z" />
<glyph unicode="&#xe93e;" glyph-name="train" horiz-adv-x="1067" d="M86.417 778.896c-17.673 0-32-14.327-32-32s14.327-32 32-32h466.125c75.733 0 147.149-23.354 206.379-64.052h-28.966c-31.164 0-60.591-14.358-79.77-38.921s-25.971-56.593-18.411-86.828c16.013-64.051 73.566-108.988 139.588-108.988h136.653c-0.354-22.95-7.996-45.478-22.242-64.137-20.51-26.85-52.365-42.603-86.153-42.603h-713.204c-17.673 0-32-14.327-32-32s14.327-32 32-32h713.204c53.734 0 104.397 25.054 137.011 67.755 32.619 42.705 43.456 98.172 29.321 150.012-50.846 186.428-220.173 315.762-413.41 315.762h-466.125zM729.954 586.844h100.019c26.62-31.209 48.175-67.155 63.228-106.737h-121.839c-36.655 0-68.608 24.947-77.5 60.511-2.778 11.114-0.282 22.889 6.767 31.918 7.053 9.030 17.869 14.308 29.325 14.308zM86.417 181.312c-17.673 0-32-14.327-32-32s14.327-32 32-32h853.688c17.673 0 32 14.327 32 32s-14.327 32-32 32h-853.688zM86.417 650.844h341.475c64.823 0 117.372-52.548 117.372-117.369s-52.548-117.368-117.372-117.368h-341.475c-17.673 0-32 14.327-32 32s14.327 32 32 32h53.375v106.737h-53.375c-17.673 0-32 14.327-32 32s14.327 32 32 32zM203.792 586.844v-106.737h106.75v106.737h-106.75zM374.542 480.107h53.35c29.474 0 53.372 23.893 53.372 53.368s-23.898 53.369-53.372 53.369h-53.35v-106.737z" />
<glyph unicode="&#xe93f;" glyph-name="trash-delete-bin" horiz-adv-x="1067" d="M427.938 864c-17.674 0-32-14.327-32-32s14.327-32 32-32h170.667c17.673 0 32 14.327 32 32s-14.327 32-32 32h-170.667zM598.605 565.333c17.673 0 32-14.327 32-32v-298.667c0-17.673-14.327-32-32-32s-32 14.327-32 32v298.667c0 17.673 14.327 32 32 32zM459.938 533.333c0 17.673-14.327 32-32 32s-32-14.327-32-32v-298.667c0-17.673 14.327-32 32-32s32 14.327 32 32v298.667zM161.271 704c0-17.673 14.327-32 32-32h32v-512c0-70.353 56.128-128 127.189-128h320c70.306 0 128.811 56.934 128.811 128v512h32c17.673 0 32 14.327 32 32s-14.327 32-32 32h-640c-17.673 0-32-14.327-32-32zM289.271 160v512h448v-512c0-35.004-29.133-64-64.811-64h-320c-35.009 0-63.189 28.284-63.189 64z" />
<glyph unicode="&#xe940;" glyph-name="user-cancel" horiz-adv-x="1067" d="M513.408 821.474c-117.862 0-213.408-95.546-213.408-213.409s95.546-213.407 213.408-213.407c117.862 0 213.41 95.543 213.41 213.407s-95.548 213.409-213.41 213.409zM364 608.065c0 82.516 66.891 149.409 149.408 149.409s149.41-66.893 149.41-149.409c0-82.514-66.893-149.407-149.41-149.407s-149.408 66.893-149.408 149.407zM203.938 106.526c0 88.397 71.682 160.077 160.080 160.077h110.252c17.677 0 32 14.327 32 32s-14.323 32-32 32h-110.252c-123.744 0-224.080-100.335-224.080-224.077 0-17.677 14.327-32 32-32s32 14.323 32 32zM846.268 289.984c12.497-12.497 12.497-32.759 0-45.257l-52.838-52.838 52.838-52.838c12.497-12.497 12.497-32.755 0-45.252s-32.759-12.497-45.257 0l-52.838 52.838-52.838-52.838c-12.497-12.497-32.755-12.497-45.252 0s-12.497 32.755 0 45.252l52.838 52.838-52.838 52.838c-12.497 12.497-12.497 32.759 0 45.257s32.755 12.497 45.252 0l52.838-52.838 52.838 52.838c12.497 12.497 32.759 12.497 45.257 0z" />
<glyph unicode="&#xe941;" glyph-name="user-tranfer" horiz-adv-x="1067" d="M513.263 821.479c-117.862 0-213.409-95.546-213.409-213.409 0-117.865 95.546-213.408 213.409-213.408s213.41 95.543 213.41 213.408c0 117.862-95.548 213.409-213.41 213.409zM363.854 608.070c0 82.516 66.892 149.409 149.409 149.409s149.41-66.893 149.41-149.409c0-82.515-66.893-149.408-149.41-149.408s-149.409 66.893-149.409 149.408zM203.792 106.526c0 88.397 71.682 160.081 160.080 160.081h110.253c17.673 0 32 14.327 32 32s-14.327 32-32 32h-110.253c-123.744 0-224.080-100.335-224.080-224.081 0-17.673 14.327-32 32-32s32 14.327 32 32zM810.825 342.592c12.506 12.489 32.768 12.476 45.257-0.030l63.983-64.068c9.143-9.156 11.874-22.916 6.916-34.867-4.954-11.955-16.619-19.746-29.559-19.746h-213.423c-17.673 0-32 14.327-32 32s14.327 32 32 32h136.243l-9.446 9.459c-12.489 12.506-12.476 32.764 0.030 45.252zM725.338 41.229c12.489-12.506 32.747-12.518 45.252-0.030s12.518 32.751 0.030 45.257l-9.442 9.455h136.239c17.673 0 32 14.327 32 32s-14.327 32-32 32h-213.423c-12.937 0-24.602-7.791-29.559-19.746-4.954-11.951-2.227-25.711 6.916-34.867l63.987-64.068z" />
<glyph unicode="&#xe942;" glyph-name="wallet-add-plus" horiz-adv-x="1067" d="M97.104 703.956v-320.152c0-17.673 14.327-32 32-32s32 14.327 32 32v266.863h563.717c0.619-0.035 1.242-0.053 1.865-0.053 0.627 0 1.246 0.018 1.865 0.053h83.503c29.478 0 53.372-23.894 53.372-53.369v-405.503c0-41.263-33.451-74.709-74.714-74.709h-277.431c-17.673 0-32-14.327-32-32s14.327-32 32-32h277.431c76.608 0 138.714 62.101 138.714 138.709v405.503c0 64.821-52.548 117.369-117.372 117.369h-53.367v10.631c0 64.821-52.548 117.369-117.367 117.369h-405.503c-76.608 0-138.711-62.103-138.711-138.711zM694.686 725.298v-10.631h-532.82c5.195 36.187 36.324 64 73.949 64h405.503c29.474 0 53.367-23.894 53.367-53.369zM641.331 415.991c-17.673 0-32-14.327-32-32 0-17.677 14.327-32 32-32h85.372c17.673 0 32 14.323 32 32 0 17.673-14.327 32-32 32h-85.372zM118.604 149.333c0 17.673 14.327 32 32 32h53.333v53.333c0 17.673 14.327 32 32 32s32-14.327 32-32v-53.333h53.333c17.673 0 32-14.327 32-32s-14.327-32-32-32h-53.333v-53.333c0-17.673-14.327-32-32-32s-32 14.327-32 32v53.333h-53.333c-17.673 0-32 14.327-32 32z" />
<glyph unicode="&#xe943;" glyph-name="wallet-money" horiz-adv-x="1067" d="M235.815 842.667h405.503c64.819 0 117.367-52.548 117.367-117.369v-10.631h53.367c64.823 0 117.372-52.548 117.372-117.369v-405.503c0-76.608-62.106-138.709-138.714-138.709h-341.453c-17.673 0-31.998 14.327-31.998 32s14.326 32 31.998 32h341.453c41.263 0 74.714 33.446 74.714 74.709v405.503c0 29.475-23.893 53.369-53.372 53.369h-83.503c-0.619-0.035-1.237-0.053-1.865-0.053-0.623 0-1.246 0.018-1.865 0.053h-563.717v-160c0-17.673-14.327-32-32-32s-32 14.327-32 32v213.289c0 76.608 62.103 138.711 138.711 138.711zM694.686 714.667v10.631c0 29.475-23.893 53.369-53.367 53.369h-405.503c-37.625 0-68.754-27.813-73.949-64h532.82zM609.331 383.991c0 17.673 14.327 32 32 32h85.372c17.673 0 32-14.327 32-32 0-17.677-14.327-32-32-32h-85.372c-17.673 0-32 14.323-32 32zM246.604 346.667c0 17.673-14.327 32-32 32s-32-14.327-32-32v-1.084c-36.315-6.153-64-37.786-64-75.844 0-35.307 24.037-66.027 58.182-74.633l60.006-15.023c5.782-1.468 9.812-6.669 9.812-12.574 0-7.138-5.789-12.928-12.928-12.928h-16.718c-0.777 0.055-1.562 0.085-2.354 0.085s-1.577-0.030-2.354-0.085h-13.646c-4.505 0-8.971 2.27-12.235 7.62-9.204 15.087-28.896 19.857-43.983 10.654-15.087-9.207-19.857-28.898-10.652-43.985 10.81-17.719 28.613-31.945 50.87-36.638v-1.566c0-17.673 14.327-32 32-32s32 14.327 32 32v0.994c36.357 6.153 64 37.803 64 75.849 0 35.307-24.037 66.027-58.182 74.633l-60.009 15.027c-5.78 1.463-9.809 6.669-9.809 12.57 0 7.117 5.812 12.928 12.928 12.928h35.072c4.478 0 8.912-2.244 12.172-7.573 9.225-15.074 28.924-19.814 43.998-10.59s19.816 28.924 10.591 43.998c-10.807 17.66-28.564 31.829-50.761 36.51v1.655z" />
<glyph unicode="&#xe944;" glyph-name="wallet-user" horiz-adv-x="1067" d="M97.104 703.956v-106.818c0-17.673 14.327-32 32-32s32 14.327 32 32v53.529h563.717c0.619-0.035 1.242-0.053 1.865-0.053 0.627 0 1.246 0.018 1.865 0.053h83.503c29.478 0 53.372-23.894 53.372-53.369v-405.503c0-41.263-33.451-74.709-74.714-74.709h-192.098c-17.673 0-32-14.327-32-32s14.327-32 32-32h192.098c76.608 0 138.714 62.101 138.714 138.709v405.503c0 64.821-52.548 117.369-117.372 117.369h-53.367v10.631c0 64.821-52.548 117.369-117.367 117.369h-405.503c-76.608 0-138.711-62.103-138.711-138.711zM694.686 725.298v-10.631h-532.82c5.195 36.187 36.324 64 73.949 64h405.503c29.474 0 53.367-23.894 53.367-53.369zM641.331 415.991c-17.673 0-32-14.327-32-32 0-17.677 14.327-32 32-32h85.372c17.673 0 32 14.323 32 32 0 17.673-14.327 32-32 32h-85.372zM218.357 224h120.161c66.887-0.192 121.062-54.366 121.254-121.254v-17.412c0-29.457-23.881-53.333-53.334-53.333h-256c-14.145 0-27.71 5.619-37.712 15.62s-15.621 23.569-15.621 37.713v17.412c0.191 66.889 54.366 121.062 121.253 121.254zM218.499 160c-31.651-0.111-57.283-25.745-57.395-57.395v-6.605h234.667v6.605c-0.111 31.65-25.743 57.284-57.395 57.395h-119.877zM225.104 384c0 29.457 23.878 53.333 53.333 53.333s53.333-23.876 53.333-53.333c0-29.457-23.878-53.333-53.333-53.333s-53.333 23.876-53.333 53.333zM278.438 501.333c-64.801 0-117.333-52.531-117.333-117.333s52.532-117.333 117.333-117.333c64.801 0 117.333 52.531 117.333 117.333s-52.532 117.333-117.333 117.333z" />
<glyph unicode="&#xe945;" glyph-name="water-drop" horiz-adv-x="1067" d="M416.571 755.884c24.312 28.034 59.593 44.137 96.7 44.137s72.388-16.103 96.7-44.137l132.066-152.282c100.314-115.67 100.314-287.497 0-403.167-57.515-66.317-140.979-104.414-228.766-104.414-87.785 0-171.25 38.097-228.765 104.414-100.314 115.669-100.314 287.497 0 403.167l132.065 152.282zM513.271 736.021c-18.551 0-36.194-8.052-48.35-22.068l-132.065-152.282c-79.447-91.608-79.447-227.693 0-319.303 45.359-52.301 111.184-82.347 180.415-82.347s135.057 30.046 180.416 82.347c79.445 91.61 79.445 227.695 0 319.303l-132.066 152.282c-12.156 14.017-29.794 22.068-48.35 22.068z" />
<glyph unicode="&#xe946;" glyph-name="add-plus" horiz-adv-x="1067" d="M555.772 693.333c0 17.673-14.327 32-32 32s-32-14.327-32-32v-213.333h-213.334c-17.673 0-32-14.327-32-32s14.327-32 32-32h213.334v-213.333c0-17.673 14.327-32 32-32s32 14.327 32 32v213.333h213.333c17.673 0 32 14.327 32 32s-14.327 32-32 32h-213.333v213.333z" />
<glyph unicode="&#xe947;" glyph-name="back" horiz-adv-x="1067" d="M727.898 854.63c12.497-12.495 12.497-32.757 0.004-45.255l-361.382-361.46 361.169-361.293c12.493-12.497 12.493-32.759-0.009-45.252-12.497-12.497-32.759-12.493-45.252 0.009l-383.788 383.915c-12.492 12.493-12.492 32.751 0.001 45.248l384 384.084c12.497 12.498 32.755 12.5 45.257 0.005z" />
<glyph unicode="&#xe948;" glyph-name="bill" horiz-adv-x="1067" d="M343.084 627.809c-17.673 0-32-14.327-32-32s14.327-32 32-32h340.547c17.673 0 32 14.327 32 32s-14.327 32-32 32h-340.547zM311.084 297.83c0 17.673 14.327 32 32 32h170.188c17.673 0 32-14.327 32-32s-14.327-32-32-32h-170.188c-17.673 0-32 14.327-32 32zM343 478.818c-17.673 0-32-14.327-32-32s14.327-32 32-32h170.272c17.677 0 32 14.327 32 32s-14.323 32-32 32h-170.272zM608.977 300.186c0 17.673 14.327 32 32 32h42.569c17.677 0 32-14.327 32-32s-14.323-32-32-32h-42.569c-17.673 0-32 14.327-32 32zM640.977 478.818c-17.673 0-32-14.327-32-32s14.327-32 32-32h42.569c17.677 0 32 14.327 32 32s-14.323 32-32 32h-42.569zM290.495 854.209c-20.983 10.376-45.62 10.297-66.536-0.214l-42.143-21.179c-25.189-12.657-41.087-38.438-41.087-66.628v-638.738c0-28.19 15.899-53.969 41.087-66.628l42.142-21.18c20.915-10.509 45.553-10.59 66.536-0.213l52.641 26.031 51.341-25.792c20.977-10.539 45.69-10.581 66.707-0.119l52.092 25.933 52.092-25.933c21.018-10.462 45.73-10.415 66.705 0.124l51.345 25.792 52.638-26.035c20.983-10.372 45.623-10.295 66.539 0.218l42.142 21.175c25.19 12.659 41.088 38.438 41.088 66.628v638.739c0 28.19-15.898 53.971-41.088 66.628l-42.142 21.178c-20.915 10.511-45.555 10.59-66.534 0.214l-52.642-26.031-51.341 25.791c-20.979 10.538-45.692 10.583-66.705 0.121l-52.096-25.934-52.092 25.934c-21.013 10.461-45.73 10.417-66.706-0.121l-51.341-25.791-52.641 26.031zM210.554 775.631l42.142 21.178c2.964 1.489 6.456 1.501 9.43 0.030l66.938-33.101c9.003-4.452 19.574-4.419 28.549 0.090l65.594 32.951c2.973 1.494 6.476 1.5 9.454 0.017l66.355-33.033c8.981-4.471 19.537-4.471 28.523 0l66.351 33.033c2.978 1.483 6.481 1.476 9.455-0.017l65.596-32.951c8.973-4.509 19.546-4.542 28.548-0.090l66.94 33.101c2.97 1.47 6.464 1.459 9.429-0.030l42.142-21.179c3.571-1.794 5.824-5.448 5.824-9.443v-638.738c0-3.994-2.257-7.646-5.824-9.442l-42.146-21.18c-2.961-1.489-6.455-1.498-9.429-0.030l-66.935 33.101c-9.003 4.454-19.575 4.42-28.548-0.090l-65.596-32.951c-2.974-1.493-6.477-1.498-9.455-0.017l-66.351 33.037c-8.986 4.471-19.541 4.467-28.523-0.004l-66.355-33.033c-2.978-1.485-6.482-1.476-9.455 0.017l-65.594 32.951c-8.975 4.51-19.546 4.54-28.549 0.090l-66.938-33.101c-2.974-1.472-6.466-1.459-9.43 0.030l-42.144 21.18c-3.57 1.792-5.823 5.449-5.823 9.442v638.738c0 3.995 2.255 7.65 5.825 9.443z" />
<glyph unicode="&#xe949;" glyph-name="calendar" horiz-adv-x="1067" d="M321.228 448c-23.478 0-42.733-19.051-42.624-42.782 0.062-23.509 19.144-42.551 42.666-42.551 23.561 0 42.667 19.106 42.667 42.667 0 23.646-19.189 42.667-42.709 42.667zM278.605 234.551c-0.109 23.731 19.146 42.782 42.624 42.782 23.52 0 42.709-19.021 42.709-42.667 0-23.561-19.105-42.667-42.667-42.667-23.522 0-42.604 19.042-42.666 42.551zM513.229 277.333c-23.479 0-42.735-19.051-42.624-42.782 0.064-23.509 19.145-42.551 42.667-42.551 23.561 0 42.667 19.106 42.667 42.667 0 23.646-19.187 42.667-42.709 42.667zM470.605 405.218c-0.111 23.731 19.145 42.782 42.624 42.782 23.522 0 42.709-19.021 42.709-42.667 0-23.561-19.106-42.667-42.667-42.667-23.522 0-42.603 19.042-42.667 42.551zM705.229 448c-23.479 0-42.735-19.051-42.624-42.782 0.064-23.509 19.145-42.551 42.667-42.551 23.561 0 42.667 19.106 42.667 42.667 0 23.646-19.187 42.667-42.709 42.667zM342.604 869.12c-17.673 0-32-14.327-32-32v-15.787h-53.333c-88.372 0-160-71.628-160-160v-469.333c0-88.371 71.628-160 160-160h512c88.371 0 160 71.629 160 160v469.333c0 88.372-71.629 160-160 160h-53.333v15.787c0 17.673-14.327 32-32 32s-32-14.327-32-32v-15.787h-277.334v15.787c0 17.673-14.327 32-32 32zM310.604 741.547c0-17.673 14.327-32 32-32s32 14.327 32 32v15.787h277.334v-15.787c0-17.673 14.327-32 32-32s32 14.327 32 32v15.787h53.333c53.026 0 96-42.974 96-96v-53.333h-704v53.333c0 53.026 42.974 96 96 96h53.333v-15.787zM161.271 192v352h704v-352c0-53.026-42.974-96-96-96h-512c-53.026 0-96 42.974-96 96z" />
<glyph unicode="&#xe94a;" glyph-name="card-stack" horiz-adv-x="1067" d="M811.938 650.667h-10.667v10.667c0 64.708-52.625 117.333-117.333 117.333h-469.313c-64.708 0-117.333-52.625-117.333-117.333v-298.667c0-64.708 52.625-117.333 117.333-117.333h10.667v-10.667c0-64.708 52.625-117.333 117.333-117.333h469.313c64.708 0 117.333 52.625 117.333 117.333v298.667c0 64.708-52.625 117.333-117.333 117.333zM865.271 533.333v-53.333h-575.98v53.333c0 29.417 23.917 53.333 53.333 53.333h469.313c29.414 0 53.333-23.917 53.333-53.333zM214.625 309.333c-29.417 0-53.333 23.915-53.333 53.333v298.667c0 29.417 23.917 53.333 53.333 53.333h469.313c29.414 0 53.333-23.917 53.333-53.333v-10.667h-394.647c-64.708 0-117.333-52.625-117.333-117.333v-224h-10.667zM811.938 181.333h-469.313c-29.417 0-53.333 23.915-53.333 53.333v181.333h575.98v-181.333c0-29.419-23.919-53.333-53.333-53.333zM513.293 309.333h-128.001c-17.667 0-32-14.332-32-32s14.333-32 32-32h128.001c17.664 0 31.979 14.332 31.979 32s-14.315 32-31.979 32z" />
<glyph unicode="&#xe94b;" glyph-name="cash-by-code" horiz-adv-x="1067" d="M395.938 483.051c0 17.673 14.327 32 32 32h170.667c17.673 0 32-14.327 32-32v-128c0-17.673-14.327-32-32-32h-170.667c-17.674 0-32 14.327-32 32v128zM459.938 451.051v-64h106.667v64h-106.667zM427.938 259.051c-17.674 0-32-14.327-32-32s14.327-32 32-32h170.667c17.673 0 32 14.327 32 32s-14.327 32-32 32h-170.667zM214.604 821.333h597.334c64.819 0 117.333-52.514 117.333-117.333v-170.667c0-64.819-52.514-117.333-117.333-117.333h-53.333v-303.232c0-41.225-33.442-74.667-74.667-74.667h-341.334c-41.225 0-74.667 33.442-74.667 74.667v303.232h-53.333c-64.82 0-117.333 52.514-117.333 117.333v170.667c0 64.82 52.513 117.333 117.333 117.333zM758.605 480h53.333c29.474 0 53.333 23.859 53.333 53.333v170.667c0 29.474-23.859 53.333-53.333 53.333h-597.334c-29.474 0-53.333-23.86-53.333-53.333v-170.667c0-29.474 23.86-53.333 53.333-53.333h53.333v138.667c0 17.673 14.327 32 32 32h426.667c17.673 0 32-14.327 32-32v-138.667zM331.938 112.768c0-5.879 4.788-10.667 10.667-10.667h341.334c5.879 0 10.667 4.787 10.667 10.667v473.899h-362.667v-473.899z" />
<glyph unicode="&#xe94c;" glyph-name="cash-without-card" horiz-adv-x="1067" d="M545.271 472.384c0 17.673-14.327 32-32 32s-32-14.327-32-32v-1.041c-36.301-6.144-64-37.734-64-75.844 0-35.307 24.069-66.035 58.215-74.641l59.964-15.057c5.786-1.463 9.822-6.669 9.822-12.574 0-7.138-5.79-12.928-12.928-12.928h-16.704c-0.781 0.055-1.57 0.085-2.368 0.085s-1.587-0.030-2.368-0.085h-13.632c-4.506 0-8.973 2.27-12.237 7.62-9.203 15.087-28.894 19.857-43.981 10.65-15.088-9.203-19.857-28.894-10.654-43.981 10.812-17.719 28.617-31.945 50.871-36.638v-1.566c0-17.673 14.327-32 32-32s32 14.327 32 32v0.994c36.356 6.153 64 37.803 64 75.849 0 35.307-24.068 66.031-58.214 74.641l-59.968 15.057c-5.786 1.463-9.818 6.669-9.818 12.574 0 7.138 5.79 12.928 12.928 12.928h17.425c0.546-0.030 1.092-0.043 1.647-0.043 0.55 0 1.101 0.013 1.647 0.043h14.353c4.476 0 8.913-2.249 12.173-7.573 9.225-15.074 28.924-19.814 43.998-10.59s19.814 28.924 10.59 43.998c-10.807 17.66-28.565 31.829-50.761 36.51v1.613zM97.271 704v-170.667c0-64.819 52.513-117.333 117.333-117.333h53.333v-303.232c0-41.225 33.441-74.667 74.667-74.667h341.334c41.225 0 74.667 33.442 74.667 74.667v303.232h53.333c64.819 0 117.333 52.514 117.333 117.333v170.667c0 64.82-52.514 117.333-117.333 117.333h-597.334c-64.82 0-117.333-52.514-117.333-117.333zM811.938 480h-53.333v138.667c0 17.673-14.327 32-32 32h-426.667c-17.673 0-32-14.327-32-32v-138.667h-53.333c-29.474 0-53.333 23.859-53.333 53.333v170.667c0 29.474 23.86 53.333 53.333 53.333h597.334c29.474 0 53.333-23.86 53.333-53.333v-170.667c0-29.474-23.859-53.333-53.333-53.333zM331.938 112.768v473.899h362.667v-473.899c0-5.879-4.787-10.667-10.667-10.667h-341.334c-5.879 0-10.667 4.787-10.667 10.667z" />
<glyph unicode="&#xe94d;" glyph-name="caution-warning-circle" horiz-adv-x="1067" d="M513.271 672c17.673 0 32-14.327 32-32v-213.333c0-17.673-14.327-32-32-32s-32 14.327-32 32v213.333c0 17.673 14.327 32 32 32zM470.605 266.551c-0.111 23.731 19.145 42.782 42.624 42.782 23.522 0 42.709-19.021 42.709-42.667 0-23.561-19.106-42.667-42.667-42.667-23.522 0-42.603 19.042-42.667 42.551zM97.271 448c0-229.769 186.231-416 416-416s416 186.231 416 416-186.231 416-416 416c-229.77 0-416-186.231-416-416zM161.271 448c0 194.423 157.577 352 352 352s352-157.577 352-352c0-194.423-157.577-352-352-352s-352 157.577-352 352z" />
<glyph unicode="&#xe94e;" glyph-name="check" horiz-adv-x="1067" d="M887.731 705.294c12.497-12.497 12.497-32.758 0-45.255l-469.333-469.332c-12.497-12.497-32.758-12.497-45.255 0l-213.333 213.333c-12.497 12.497-12.497 32.755 0 45.252s32.758 12.497 45.255 0l190.706-190.703 446.704 446.704c12.497 12.497 32.759 12.497 45.257 0z" />
<glyph unicode="&#xe94f;" glyph-name="check-circle" horiz-adv-x="1067" d="M706.564 510.707c12.497 12.497 12.497 32.757 0 45.254s-32.759 12.497-45.252 0l-190.707-190.704-105.373 105.37c-12.497 12.497-32.758 12.497-45.255 0s-12.497-32.755 0-45.252l128.002-128c12.493-12.497 32.755-12.497 45.252 0l213.333 213.333zM513.271 864c-229.77 0-416-186.231-416-416s186.231-416 416-416c229.769 0 416 186.231 416 416s-186.231 416-416 416zM161.271 448c0 194.423 157.577 352 352 352s352-157.577 352-352c0-194.423-157.577-352-352-352s-352 157.577-352 352z" />
<glyph unicode="&#xe950;" glyph-name="clock" horiz-adv-x="1067" d="M533.231 619.307c0 17.673-14.327 32-32 32-17.677 0-32-14.327-32-32v-198.443c0-11.157 5.811-21.513 15.339-27.324l155.989-95.104c15.091-9.199 34.782-4.425 43.981 10.667 9.203 15.091 4.425 34.782-10.662 43.981l-140.646 85.751v180.472zM807.42 742.158c-162.47 162.47-425.847 162.47-588.317 0s-162.47-425.844 0-588.314c162.47-162.47 425.847-162.47 588.317 0s162.47 425.844 0 588.314zM264.358 696.903c137.476 137.477 360.329 137.477 497.806 0s137.476-360.331 0-497.807c-137.476-137.476-360.329-137.476-497.806 0s-137.477 360.331 0 497.807z" />
<glyph unicode="&#xe951;" glyph-name="clock-loading" horiz-adv-x="1067" d="M513.271 864c-17.673 0-32-14.327-32-32s14.327-32 32-32c194.423 0 352-157.577 352-352s-157.577-352-352-352c-17.673 0-32-14.327-32-32s14.327-32 32-32c229.769 0 416 186.231 416 416s-186.231 416-416 416zM287.092 178.453c-13.538 11.362-33.722 9.596-45.083-3.942s-9.596-33.719 3.942-45.082c36.89-30.959 79.244-55.253 125.154-71.983 16.605-6.054 34.971 2.5 41.023 19.106s-2.503 34.97-19.108 41.024c-39.082 14.242-74.894 34.833-105.929 60.877zM412.138 819.422c6.037-16.61-2.534-34.969-19.145-41.006-39.061-14.197-74.858-34.778-105.883-60.854-13.53-11.371-33.715-9.621-45.086 3.909s-9.621 33.715 3.908 45.086c36.9 31.012 79.268 55.316 125.199 72.010 16.61 6.037 34.969-2.534 41.006-19.144zM208.655 623.86c8.842 15.302 3.605 34.875-11.697 43.717s-34.875 3.605-43.717-11.697c-23.863-41.297-40.785-87.033-49.335-135.7-3.058-17.404 8.573-33.997 25.98-37.052 17.407-3.059 33.996 8.572 37.055 25.98 7.237 41.188 21.546 79.847 41.715 114.752zM129.885 412.911c17.407 3.059 33.996-8.572 37.055-25.98 7.237-41.186 21.546-79.846 41.715-114.752 8.842-15.305 3.605-34.876-11.697-43.716-15.302-8.845-34.875-3.605-43.717 11.695-23.863 41.297-40.785 87.036-49.335 135.701-3.058 17.404 8.573 33.997 25.98 37.052zM533.231 619.266c0 17.673-14.327 32-32 32-17.677 0-32-14.327-32-32v-198.444c0-11.157 5.811-21.513 15.339-27.319l155.989-95.104c15.091-9.203 34.782-4.425 43.981 10.662 9.203 15.091 4.425 34.782-10.662 43.981l-140.646 85.751v180.473z" />
<glyph unicode="&#xe952;" glyph-name="clock-refresh-reload" horiz-adv-x="1067" d="M490.876 800c-194.423 0-352.001-157.577-352.001-352s157.577-352 352.001-352c194.428 0 352 157.538 352 351.957v18.705l-17.353-17.353c-12.497-12.497-32.759-12.497-45.257 0s-12.497 32.759 0 45.257l71.036 71.030c5.705 6.213 13.833 10.164 22.891 10.353l0.73 0.008c8.486-0.001 16.627-3.375 22.63-9.379l71.979-72.021c12.493-12.501 12.484-32.764-0.017-45.257-12.497-12.493-32.759-12.484-45.252 0.017l-17.387 17.395v-18.756c0-229.773-186.236-415.957-416-415.957-229.77 0-416.001 186.231-416.001 416s186.231 416 416.001 416c131.324 0 248.29-61.037 324.442-155.979 11.055-13.786 8.845-33.927-4.945-44.984-13.786-11.057-33.924-8.845-44.983 4.942-64.567 80.503-163.49 132.021-274.513 132.021zM510.874 619.307c0 17.673-14.327 32-32 32s-32-14.327-32-32v-201.046c0-11.281 5.943-21.73 15.637-27.499l155.819-92.715c15.189-9.037 34.829-4.053 43.866 11.136s4.049 34.825-11.14 43.861l-140.181 83.413v182.848z" />
<glyph unicode="&#xe953;" glyph-name="clock-speed" horiz-adv-x="1067" d="M97.271 448c0 229.751 186.249 416 416 416s416-186.249 416-416c0-229.751-186.249-416-416-416-17.673 0-32 14.327-32 32s14.327 32 32 32c194.402 0 352 157.598 352 352 0 194.404-157.598 352-352 352-194.383 0-351.966-157.561-352-351.936 0.11-26.27 3.23-52.446 9.298-78.007 4.082-17.195-6.548-34.441-23.743-38.524s-34.444 6.545-38.526 23.744c-7.204 30.34-10.904 61.41-11.029 92.595v0.128zM129.271 224c-17.673 0-32-14.327-32-32s14.327-32 32-32h213.333c17.673 0 32 14.327 32 32s-14.327 32-32 32h-213.333zM214.604 96c-17.673 0-32-14.327-32-32s14.327-32 32-32h128c17.673 0 32 14.327 32 32s-14.327 32-32 32h-128zM523.938 661.333c0 17.673-14.327 32-32 32s-32-14.327-32-32v-234.667c0-17.673 14.327-32 32-32h192c17.673 0 32 14.327 32 32s-14.327 32-32 32h-160v202.667z" />
<glyph unicode="&#xe954;" glyph-name="delete-cancel-close" horiz-adv-x="1067" d="M279.732 737.294c-12.497 12.497-32.758 12.497-45.255 0s-12.497-32.758 0-45.255l244.038-244.039-244.038-244.041c-12.497-12.497-12.497-32.755 0-45.252s32.758-12.497 45.255 0l244.040 244.036 244.036-244.036c12.497-12.497 32.759-12.497 45.257 0s12.497 32.755 0 45.252l-244.041 244.041 244.041 244.039c12.497 12.497 12.497 32.758 0 45.255s-32.759 12.497-45.257 0l-244.036-244.038-244.040 244.038z" />
<glyph unicode="&#xe955;" glyph-name="deposit" horiz-adv-x="1067" d="M587.938 490.667c0 47.729 44.156 83.184 90.782 72.889l42.658-9.428c34.21-7.551 58.56-37.878 58.56-72.89v-66.475c0-24.282-11.703-46.31-30.289-60.049-8.213-6.071-17.771-10.526-28.258-12.843l-42.667-9.429c-46.626-10.295-90.786 25.161-90.786 72.892v85.333zM664.922 394.935l42.658 9.429c4.868 1.071 8.358 5.393 8.358 10.398v66.475c0 5.001-3.477 9.318-8.341 10.394l-42.675 9.429c-6.703 1.476-12.983-3.601-12.983-10.394v-85.333c0-6.797 6.281-11.874 12.983-10.398zM581.235 861.198c-62.345 13.783-121.916-24.575-138.249-82.573h-228.382c-64.82 0-117.333-52.513-117.333-117.333v-469.292c0-64.819 52.513-117.333 117.333-117.333h10.667v-10.667c0-17.673 14.327-32 32-32s32 14.327 32 32v10.667h176.154c26.863-32.439 70.609-49.856 115.81-39.863l198.703 43.878v-14.682c0-17.673 14.327-32 32-32s32 14.327 32 32v29.022c50.24 14.199 85.333 60.143 85.333 112.887v484.182c0 55.012-38.251 102.717-92.062 114.579l-255.974 56.527zM438.605 714.625v-565.249c0-3.614 0.162-7.189 0.478-10.709h-224.478c-29.474 0-53.333 23.859-53.333 53.333v469.292c0 29.474 23.86 53.333 53.333 53.333h224zM511.104 120.431c-0.742 1.562-1.609 3.051-2.586 4.459-3.767 7.279-5.914 15.586-5.914 24.486v597.249c0 34.123 31.552 59.439 64.811 52.083l256.026-56.539c24.435-5.382 41.83-27.052 41.83-52.077v-484.182c0-25.058-17.404-46.694-41.843-52.079l-15.962-3.524c-1.673-0.235-3.298-0.597-4.877-1.079l-235.174-51.934c-22.754-5.030-44.71 5.231-56.311 23.138z" />
<glyph unicode="&#xe956;" glyph-name="download" horiz-adv-x="1067" d="M523.772 821.479c17.673 0 32-14.327 32-32v-378.057l97.152 97.152c12.497 12.497 32.759 12.497 45.257 0 12.493-12.497 12.493-32.755 0-45.252l-151.501-151.497c-1.015-1.041-2.099-2.014-3.247-2.91-2.214-1.728-4.599-3.123-7.095-4.19-2.88-1.229-5.973-2.048-9.207-2.385-9.271-0.977-18.889 2.091-25.993 9.195l-151.785 151.787c-12.497 12.497-12.497 32.755 0 45.252s32.758 12.497 45.255 0l97.165-97.165v378.070c0 17.673 14.327 32 32 32zM214.292 258.317c0 17.673-14.327 32-32 32s-32-14.327-32-32c0-101.5 82.284-183.787 183.786-183.787h379.377c101.504 0 183.787 82.287 183.787 183.787 0 17.673-14.327 32-32 32s-32-14.327-32-32c0-66.155-53.628-119.787-119.787-119.787h-379.377c-66.156 0-119.786 53.632-119.786 119.787z" />
<glyph unicode="&#xe957;" glyph-name="down-straight" horiz-adv-x="1067" d="M545.271 746.667c0 17.673-14.327 32-32 32s-32-14.327-32-32v-520.077l-158.748 158.746c-12.497 12.497-32.758 12.497-45.255 0s-12.497-32.759 0-45.257l213.377-213.376c3.243-3.243 7.014-5.645 11.034-7.206 2.889-1.122 5.982-1.839 9.212-2.078 1.651-0.119 3.311-0.115 4.958 0.017 7.313 0.589 14.46 3.678 20.049 9.267l213.376 213.376c12.497 12.497 12.497 32.759 0 45.257s-32.755 12.497-45.252 0l-158.75-158.75v520.081z" />
<glyph unicode="&#xe958;" glyph-name="education-hat" horiz-adv-x="1067" d="M888.73 665.6l-264.533 145.067c-72.533 38.4-153.6 38.4-226.134 0l-264.533-145.067c-34.133-21.333-55.467-55.467-55.467-98.133s21.333-76.8 55.467-98.133l89.6-51.2v-149.333c0-51.2 25.6-98.133 68.267-123.733l68.267-46.933c46.933-29.867 98.134-46.933 149.334-46.933s106.667 17.067 149.333 46.933l68.267 46.933c42.667 29.867 68.267 76.8 68.267 123.733v149.333l89.6 51.2c34.133 21.333 55.467 55.467 55.467 98.133s-17.067 76.8-51.2 98.133zM743.663 273.067c0-29.867-21.333-59.733-42.667-76.8l-68.267-46.933c-72.533-46.933-162.133-46.933-234.667 0l-68.267 46.933c-25.6 17.067-38.4 46.933-38.4 76.8v115.2l115.2-64c34.134-21.333 72.534-29.867 110.934-29.867s76.8 8.533 110.933 29.867l115.2 64v-115.2zM858.863 524.8l-264.533-145.067c-51.2-29.867-115.2-29.867-166.4 0l-264.534 145.067c-17.067 8.533-25.6 25.6-25.6 42.666s8.533 34.133 25.6 42.667l264.534 145.067c51.2 29.867 115.2 29.867 166.4 0l264.533-145.067c17.067-8.533 25.6-25.6 25.6-42.667s-8.533-34.133-25.6-42.666z" />
<glyph unicode="&#xe959;" glyph-name="faceid" horiz-adv-x="1067" d="M107.771 746.667c0 64.82 52.514 117.333 117.333 117.333h110.421c17.673 0 32-14.327 32-32s-14.327-32-32-32h-110.421c-29.474 0-53.333-23.86-53.333-53.333v-110.421c0-17.673-14.327-32-32-32s-32 14.327-32 32v110.421zM363.771 572.586c0 17.673-14.327 32-32 32s-32-14.327-32-32v-63.999c0-17.673 14.327-32 32-32s32 14.327 32 32v63.999zM747.772 572.586c0 17.673-14.327 32-32 32s-32-14.327-32-32v-63.999c0-17.673 14.327-32 32-32s32 14.327 32 32v63.999zM545.105 603.862c17.673 0 32-14.327 32-32v-149.334c0-41.225-33.442-74.667-74.667-74.667h-21.333c-17.673 0-32 14.327-32 32s14.327 32 32 32h21.333c5.879 0 10.667 4.787 10.667 10.667v149.334c0 17.673 14.327 32 32 32zM408.107 293.261c-12.497 12.497-32.758 12.497-45.255 0-12.497-12.493-12.497-32.755 0-45.252 88.869-88.87 232.992-88.87 321.863 0 12.497 12.497 12.497 32.759 0 45.252-12.497 12.497-32.759 12.497-45.257 0-63.876-63.876-167.475-63.876-231.351 0zM939.776 259.755c0 17.673-14.327 32-32 32s-32-14.327-32-32v-110.421c0-29.474-23.859-53.333-53.333-53.333h-110.421c-17.673 0-32-14.327-32-32s14.327-32 32-32h110.421c64.819 0 117.333 52.514 117.333 117.333v110.421zM139.771 291.755c17.673 0 32-14.327 32-32v-110.421c0-29.474 23.86-53.333 53.333-53.333h110.421c17.673 0 32-14.327 32-32s-14.327-32-32-32h-110.421c-64.82 0-117.333 52.514-117.333 117.333v110.421c0 17.673 14.327 32 32 32zM712.021 864c-17.673 0-32-14.327-32-32s14.327-32 32-32h110.421c29.474 0 53.333-23.86 53.333-53.333v-110.421c0-17.673 14.327-32 32-32s32 14.327 32 32v110.421c0 64.82-52.514 117.333-117.333 117.333h-110.421z" />
</font>
</defs>
</svg>
